<?xml version="1.0" encoding="utf-8"?>
<!-- Generator: Adobe Illustrator 24.3.0, SVG Export Plug-In . SVG Version: 6.00 Build 0)  -->
<svg version="1.1" id="Layer_1" xmlns="http://www.w3.org/2000/svg" xmlns:xlink="http://www.w3.org/1999/xlink" x="0px" y="0px"
	 viewBox="0 0 512 512" style="enable-background:new 0 0 512 512;" xml:space="preserve">
<style type="text/css">
	.st0{fill:#F68536;}
	.st1{fill:#9D5025;}
</style>
<g id="XMLID_1_">
	<polyline id="XMLID_2_" class="st0" points="114.74,404.97 65.23,416.33 65.23,95.39 114.74,106.75 114.74,404.97 	"/>
	<polyline id="XMLID_3_" class="st0" points="176.6,423.91 114.74,441.44 114.74,70.56 176.6,88.09 176.6,423.91 	"/>
	<polyline id="XMLID_4_" class="st0" points="256,443.41 176.6,472.44 176.6,39.7 256,68.73 256,443.41 	"/>
	<polyline id="XMLID_5_" class="st0" points="468.09,405.95 256,512 256,0 468.09,106.05 468.09,405.95 	"/>
	<polyline id="XMLID_6_" class="st1" points="213.64,21.18 256,0 256,512 213.64,490.82 213.64,21.18 	"/>
	<polyline id="XMLID_7_" class="st1" points="143.92,55.97 176.6,39.7 176.6,472.3 143.92,456.03 143.92,55.97 	"/>
	<polyline id="XMLID_8_" class="st1" points="88.79,83.6 114.74,70.56 114.74,441.44 88.79,428.4 88.79,83.6 	"/>
	<polyline id="XMLID_9_" class="st1" points="65.23,95.39 43.91,106.05 43.91,405.95 65.23,416.61 65.23,95.39 	"/>
</g>
</svg>
