<?xml version="1.0" encoding="utf-8"?>
<!-- Generator: Adobe Illustrator 24.1.1, SVG Export Plug-In . SVG Version: 6.00 Build 0)  -->
<svg version="1.1" id="Layer_1" xmlns="http://www.w3.org/2000/svg" xmlns:xlink="http://www.w3.org/1999/xlink" x="0px" y="0px"
	 viewBox="0 0 512 512" style="enable-background:new 0 0 512 512;" xml:space="preserve">
<style type="text/css">
	.st0{fill:#2684FF;}
	.st1{fill:url(#SVGID_1_);}
</style>
<g>
	<path class="st0" d="M16.6,25.8c-4.8-0.1-9.5,2-12.6,5.7C0.8,35.2-0.6,40,0.2,44.8l69.6,422.7c1.8,10.7,11,18.5,21.8,18.6h334.1
		c8.1,0.1,15.1-5.8,16.4-13.8l69.6-427.5c0.8-4.8-0.6-9.7-3.8-13.3c-3.2-3.7-7.8-5.8-12.6-5.7L16.6,25.8z M309.8,331.3H203.2
		l-28.9-150.8h161.3L309.8,331.3z"/>
	
		<linearGradient id="SVGID_1_" gradientUnits="userSpaceOnUse" x1="-1.4191" y1="510.4341" x2="0.5809" y2="510.4341" gradientTransform="matrix(-127.116 99.2095 -133.8137 -94.2438 68647.5703 48468.5664)">
		<stop  offset="0" style="stop-color:#0052CC"/>
		<stop  offset="0.18" style="stop-color:#0052CC"/>
		<stop  offset="1" style="stop-color:#2684FF"/>
	</linearGradient>
	<path class="st1" d="M489.2,180.3H335.4L309.6,331H203L77.2,480.3c4,3.4,9.1,5.4,14.3,5.4h333.9c8.1,0.1,15.1-5.8,16.4-13.8
		L489.2,180.3z"/>
</g>
</svg>
