<?xml version="1.0" encoding="utf-8"?>
<!-- Generator: Adobe Illustrator 26.5.0, SVG Export Plug-In . SVG Version: 6.00 Build 0)  -->
<svg version="1.1" id="Layer_1" xmlns="http://www.w3.org/2000/svg" xmlns:xlink="http://www.w3.org/1999/xlink" x="0px" y="0px"
	 viewBox="0 0 512 512" style="enable-background:new 0 0 512 512;" xml:space="preserve">
<style type="text/css">
	.st0{fill:url(#XMLID_00000178926738564044759870000011512427157809557633_);}
	.st1{fill:#FFFFFF;}
</style>
<g id="XMLID_1_">
	
		<linearGradient id="XMLID_00000066485863592207764260000001398764598563334806_" gradientUnits="userSpaceOnUse" x1="-163.806" y1="555.058" x2="-162.4568" y2="555.058" gradientTransform="matrix(0 293.5529 293.5624 0 -162688.4062 48147.3789)">
		<stop  offset="0" style="stop-color:#BF0000"/>
		<stop  offset="1" style="stop-color:#8F0000"/>
	</linearGradient>
	<path id="XMLID_3_" style="fill:url(#XMLID_00000066485863592207764260000001398764598563334806_);" d="M-0.25,16.89V39.5
		c9.41,0,17.14,7.73,17.14,17.14S9.16,73.78-0.25,73.78v22.62c9.41,0,17.14,7.73,17.14,17.14s-7.73,17.14-17.14,17.14v22.62
		c9.41,0,17.14,7.73,17.14,17.14c0,9.41-7.73,17.14-17.14,17.14v22.62c9.41,0,17.14,7.73,17.14,17.14c0,9.41-7.73,17.14-17.14,17.14
		v22.62c9.41,0,17.14,7.73,17.14,17.14c0,9.41-7.73,17.14-17.14,17.14v22.62c9.41,0,17.14,7.73,17.14,17.14
		c0,9.41-7.73,17.14-17.14,17.14v22.62c9.41,0,17.14,7.73,17.14,17.14s-7.73,17.14-17.14,17.14v22.62c9.41,0,17.14,7.73,17.14,17.14
		S9.16,472-0.25,472v22.62c4.49,0,8.99,1.83,12.08,5.06c3.23,3.23,5.06,7.59,5.06,12.08H39.5c0-9.41,7.73-17.14,17.14-17.14
		s17.14,7.73,17.14,17.14h22.62c0-9.41,7.73-17.14,17.14-17.14s17.14,7.73,17.14,17.14h22.62c0-9.41,7.73-17.14,17.14-17.14
		c9.41,0,17.14,7.73,17.14,17.14h22.62c0-9.41,7.73-17.14,17.14-17.14c9.41,0,17.14,7.73,17.14,17.14h22.62
		c0-9.41,7.73-17.14,17.14-17.14c9.41,0,17.14,7.73,17.14,17.14h22.62c0-9.41,7.73-17.14,17.14-17.14c9.41,0,17.14,7.73,17.14,17.14
		h22.62c0-9.41,7.73-17.14,17.14-17.14s17.14,7.73,17.14,17.14h22.62c0-9.41,7.73-17.14,17.14-17.14S472,502.34,472,511.75h22.62
		c0-4.49,1.83-8.99,5.06-12.08c3.23-3.23,7.59-5.06,12.08-5.06V472c-9.41,0-17.14-7.73-17.14-17.14s7.73-17.14,17.14-17.14v-22.62
		c-9.41,0-17.14-7.73-17.14-17.14s7.73-17.14,17.14-17.14v-22.62c-9.41,0-17.14-7.73-17.14-17.14c0-9.41,7.73-17.14,17.14-17.14
		v-22.62c-9.41,0-17.14-7.73-17.14-17.14c0-9.41,7.73-17.14,17.14-17.14v-22.19c-9.41,0-17.14-7.73-17.14-17.14
		s7.73-17.14,17.14-17.14v-22.62c-9.41,0-17.14-7.73-17.14-17.14s7.73-17.14,17.14-17.14v-22.62c-9.41,0-17.14-7.73-17.14-17.14
		s7.73-17.14,17.14-17.14V74.2c-9.41,0-17.14-7.73-17.14-17.14s7.73-17.14,17.14-17.14V16.89c-4.49,0-8.99-1.83-12.08-5.06
		c-3.23-3.23-5.06-7.59-5.06-12.08H472c0,9.41-7.73,17.14-17.14,17.14s-17.14-7.73-17.14-17.14h-22.62
		c0,9.41-7.73,17.14-17.14,17.14s-17.14-7.73-17.14-17.14h-22.62c0,9.41-7.73,17.14-17.14,17.14c-9.41,0-17.14-7.73-17.14-17.14
		h-22.62c0,9.41-7.73,17.14-17.14,17.14c-9.41,0-17.14-7.73-17.14-17.14h-22.62c0,9.41-7.73,17.14-17.14,17.14
		c-9.41,0-17.14-7.73-17.14-17.14h-22.62c0,9.41-7.73,17.14-17.14,17.14c-9.41,0-17.14-7.73-17.14-17.14h-22.62
		c0,9.41-7.73,17.14-17.14,17.14S96.39,9.16,96.39-0.25H73.78c0,9.41-7.73,17.14-17.14,17.14S39.5,9.16,39.5-0.25H16.89
		c0,4.49-1.83,8.99-5.06,12.08C8.74,15.06,4.24,16.89-0.25,16.89z"/>
	<path id="XMLID_4_" class="st1" d="M436.46,204.83H180.67l13.34-62.51h155.92l14.33-67.28H140.08L69.56,407.95h67.7l31.04-145.38
		h162.38L189.52,402.33l24.86,43.83c11.38-7.59,30.06-8.57,42.98-8.57c22.9,0,45.37,7.59,68.69,7.59c21.35,0,43.4-1.4,79.08-18.54
		l12.5-58.71c-24.3,9.97-60.26,19.52-91.58,19.52c-12.92,0-24.72-2.81-37.22-4.78l136.81-133.02L436.46,204.83z"/>
</g>
</svg>
