<?xml version="1.0" encoding="utf-8"?>
<!-- Generator: Adobe Illustrator 26.5.0, SVG Export Plug-In . SVG Version: 6.00 Build 0)  -->
<svg version="1.1" id="Layer_1" xmlns="http://www.w3.org/2000/svg" xmlns:xlink="http://www.w3.org/1999/xlink" x="0px" y="0px"
	 viewBox="0 0 512 512" style="enable-background:new 0 0 512 512;" xml:space="preserve">
<style type="text/css">
	.st0{fill:#4285F4;}
	.st1{fill:#34A853;}
	.st2{fill:#FBBC04;}
	.st3{fill:#EA4335;}
	.st4{fill:#C5221F;}
</style>
<g>
	<path class="st0" d="M34.92,448h81.41V250.27L0,162.92v250.16C0,432.44,15.67,448,34.92,448z"/>
	<path class="st1" d="M395.67,448h81.41c19.25,0,34.92-15.67,34.92-34.92V162.92l-116.33,87.24V448z"/>
	<path class="st2" d="M395.67,98.92v151.24L512,162.92v-46.59c0-43.11-49.25-67.79-83.76-41.88L395.67,98.92z"/>
	<polygon class="st3" points="116.33,250.27 116.33,98.92 256,203.68 395.67,98.92 395.67,250.27 256,354.92 	"/>
	<path class="st4" d="M0,116.43v46.59l116.33,87.24V98.92L83.76,74.55C49.25,48.64,0,73.32,0,116.43z"/>
</g>
</svg>
