<?xml version="1.0" encoding="utf-8"?>
<!-- Generator: Adobe Illustrator 24.1.1, SVG Export Plug-In . SVG Version: 6.00 Build 0)  -->
<svg version="1.1" id="Layer_1" xmlns="http://www.w3.org/2000/svg" xmlns:xlink="http://www.w3.org/1999/xlink" x="0px" y="0px"
	 viewBox="0 0 512 512" style="enable-background:new 0 0 512 512;" xml:space="preserve">
<style type="text/css">
	.st0{fill:#D33833;}
	.st1{fill:#EF3D3A;}
	.st2{fill:#231F20;}
	.st3{fill:#F0D6B7;}
	.st4{fill:#335061;}
	.st5{fill:#6D6B6D;}
	.st6{fill:#DCD9D8;}
	.st7{fill:#F7E4CD;}
	.st8{fill:#49728B;}
	.st9{fill:#FFFFFF;}
	.st10{fill:#81B0C4;}
	.st11{fill:#1D1919;}
</style>
<g>
	<path class="st0" d="M406.8,207.7c0,85.4-67.7,154.6-151.2,154.6c-83.5,0-151.2-69.3-151.2-154.6S172,53,255.6,53
		C339.1,53,406.8,122.3,406.8,207.7"/>
	<path class="st1" d="M110.6,245.9c0,0-11-161.2,137.7-165.8l-10.4-17.3l-80.6,27.1l-23,26.5l-20.1,38.5l-11.5,44.9l3.4,30"/>
	<path class="st2" d="M152.1,102.2c-26.5,27.2-42.9,64.6-42.9,106.1s16.5,78.9,42.9,106.1c26.6,27.2,63,43.9,103.5,43.9
		c40.5,0,76.9-16.7,103.5-43.9c26.5-27.2,42.9-64.6,42.9-106.1s-16.5-78.9-42.9-106.1c-26.6-27.1-63-43.9-103.5-43.9
		C215.2,58.3,178.6,75,152.1,102.2z M145.3,320.8c-28.2-28.8-45.6-68.6-45.6-112.5c0-43.9,17.4-83.8,45.6-112.7
		c28.2-28.8,67.2-46.7,110.2-46.7s82.1,17.9,110.2,46.7c28.2,28.8,45.6,68.6,45.6,112.7c0,43.9-17.4,83.8-45.6,112.5
		c-28.2,28.9-67.2,46.7-110.2,46.7S173.5,349.7,145.3,320.8z"/>
	<polyline class="st3" points="319.2,208.5 296.2,211.9 265.1,215.5 245,215.9 225.3,215.3 210.3,210.7 197,196.3 186.7,166.9 
		184.4,160.6 170.6,156 162.5,142.7 156.8,123.6 163.1,106.9 178.1,101.7 190.2,107.4 195.9,120.1 202.9,119 205.2,116.1 
		202.9,102.8 202.3,86.1 205.7,63 205.6,49.9 216.1,33 234.5,19.8 266.7,6 302.4,11.2 333.5,33.7 347.9,56.7 357.1,73.4 
		359.5,114.9 352.5,150.6 339.8,182.3 327.9,199.2 	"/>
	<polyline class="st4" points="299.7,308.1 217.4,311.5 217.4,325.3 224.4,373.7 220.9,377.8 163.4,358.1 159.4,351.2 153.6,286.1 
		140.1,247 137.2,237.8 183.3,206.1 197.7,200.3 210.3,215.9 221.3,225.7 234,229.7 239.7,231.4 246.7,261.4 251.9,267.8 
		265.2,263.1 255.9,281.1 305.9,304.7 299.7,308.1 	"/>
	<polyline class="st5" points="163.1,107.2 178.1,101.9 190.2,107.7 195.9,120.4 202.9,119.3 204.6,112.3 201.2,99 204.6,67.3 
		201.7,50 212,37.9 234.5,20.1 228.1,11.5 196.4,27.1 183.1,37.4 175.7,53.5 164.2,69.1 160.8,87.6 163.1,107.2 	"/>
	<path class="st6" d="M186.8,53c0,0,8.7-21.3,43.2-31.7s1.7-7.4,1.7-7.4l-37.4,14.4l-14.4,14.4l-6.3,11.5L186.8,53"/>
	<path class="st6" d="M169.5,103.2c0,0-12.1-40.4,34-46.1l-1.7-7l-31.7,7.4l-9.3,30l2.3,19.6L169.5,103.2"/>
	<path class="st7" d="M187.9,156.7l7.6-7.3c0,0,3.4,0.4,4,4.4c0.6,4,2.3,40.4,27.1,59.9c2.3,1.8-18.4-2.9-18.4-2.9l-18.4-28.8"/>
	<path class="st7" d="M293.9,145.7c0,0,1.3-17.4,6.1-16.1c4.8,1.3,4.8,6.1,4.8,6.1S293.3,143,293.9,145.7"/>
	<path class="st7" d="M341.7,81.8c0,0-9.5,2-10.4,10.4c-0.9,8.4,10.4,1.7,12.1,1.1"/>
	<path class="st7" d="M272,82.4c0,0-12.7,1.7-12.7,9.8s14.4,7.4,18.4,4"/>
	<path class="st7" d="M193.8,119.9c0,0-21.8-13.3-24.1-0.6c-2.3,12.7-7.4,21.8,3.4,35.1l-7.4-2.3l-7-17.8l-2.3-17.3l13.3-13.8
		l15,1.1l8.7,7L193.8,119.9"/>
	<path class="st7" d="M204.1,83.5c0,0,9.8-50.7,59.3-60.5c40.7-8,62.2,1.7,70.2,11c0,0-36.3-43.2-70.8-30
		c-34.5,13.3-59.9,37.4-59.3,52.9C204.5,83.5,204.1,83.5,204.1,83.5"/>
	<path class="st7" d="M337.6,39.8c0,0-16.7-0.6-17.3,14.4c0,0,0,2.3,1.1,4.6c0,0,13.3-15,21.3-7"/>
	<path class="st7" d="M264.6,60.4c0,0-2.9-22.9-22.4-9.6c-12.7,8.7-11.5,20.7-9.3,23c2.3,2.3,1.7,7,3.4,3.8
		c1.7-3.2,1.2-13.5,7.6-16.5C250.1,58.2,260.6,55,264.6,60.4"/>
	<path class="st8" d="M210.5,215.9l-54.1,24.1c0,0,22.4,89.3,11,116.9l-8-2.9l-0.6-34l-15-64.4l-6.3-17.8l56.5-38L210.5,215.9"/>
	<path class="st8" d="M215.9,265.3l7.7,9.4v34.5h-9.1c0,0-1.1-24.1-1.1-27.1c0-2.9,1.1-13.3,1.1-13.3"/>
	<polyline class="st8" points="216.2,314.5 190.2,315.6 197.7,320.8 216.1,323.7 	"/>
	<polyline class="st4" points="304.8,308.7 326.2,308.1 331.4,361 309.6,364 304.8,308.7 	"/>
	<path class="st4" d="M310.6,308.7l32.2-1.7c0,0,13.3-33.4,13.3-35.1s11.5-48.4,11.5-48.4l-26-27.1l-5.2-4.6l-13.8,13.8v53.5
		L310.6,308.7"/>
	<path class="st8" d="M325,304.7l-20.1,4l2.9,16.1c7.4,3.4,20.1-5.7,20.1-5.7"/>
	<polyline class="st8" points="325.6,203.9 365.9,233.9 367,220.1 336.5,191.9 325.6,203.9 	"/>
	<polyline class="st9" points="236.2,422.1 224.2,373.7 218.3,338 217.3,311.5 271.3,308.6 304.8,308.6 301.8,369.1 307,415.8 
		306.4,424.5 262.6,427.9 236.2,422.1 	"/>
	<path class="st6" d="M297.4,308.1c0,0-2.9,59.9,5.7,102.5c0,0-17.3,11-42.6,13.8l48.4-1.7l5.7-3.4l-7-94.4l-1.8-20.2"/>
	<polyline class="st9" points="332.3,356.5 354.7,350.2 397.3,347.9 403.6,328.2 392.1,294.2 378.8,292.5 360.4,298.3 342.9,306.9 
		333.5,305.2 326.2,308.1 	"/>
	<path class="st6" d="M331.9,345c0,0,15-7,17.3-6.3l-6.3-31.7l7.4-2.9c0,0,5.2,30,5.2,33.4c0,0,32.2,1.7,35.1,1.7
		c0,0,7-13.3,5.2-27.1l6.3,18.4l0.6,10.4l-9.3,13.8l-10.4,2.3l-17.3-0.6l-5.7-7.4l-20.1,2.9l-6.3,2.3"/>
	<path class="st9" d="M309.2,304.1l-12.7-32.2l-13.3-19c0,0,2.9-8,7-8h13.3l12.7,4.6l-1.1,21.3L309.2,304.1"/>
	<path class="st6" d="M311.8,293.1c0,0-16.1-31.1-16.1-35.7c0,0,2.9-7,7-5.2c4,1.7,12.7,6.3,12.7,6.3v-11l-19.6-4l-13.3,1.7
		l22.4,53.2l4.6,0.6"/>
	<polyline class="st9" points="241.3,217.2 225.3,215.5 210.3,210.8 210.3,216.1 217.7,224.1 240.7,234.5 	"/>
	<path class="st6" d="M215.6,218.9c0,0,17.8,7.4,23.7,5.7l0.6,7l-16.1-3.4l-9.8-7L215.6,218.9"/>
	<path class="st0" d="M332.3,246.8c-9.8-0.2-18.7-1.5-26.3-3.7c0.5-3.2-0.5-6.2,0.4-8.5c2.2-1.6,5.7-1.6,9-2c-2.8-1.3-6.8-2-10-1.1
		c-0.1-2.2-1.1-3.5-1.7-5.2c5.5-2,18.4-14.8,25.7-10.6c3.5,2.1,5,13.5,5.2,19.3C334.8,239.6,334.1,244.2,332.3,246.8"/>
	<path d="M332.3,246.8c-9.8-0.2-18.7-1.5-26.3-3.7c0.5-3.2-0.5-6.2,0.4-8.5c2.2-1.6,5.7-1.6,9-2c-2.8-1.3-6.8-2-10-1.1
		c-0.1-2.2-1.1-3.5-1.7-5.2c5.5-2,18.4-14.8,25.7-10.6c3.5,2.1,5,13.5,5.2,19.3C334.8,239.6,334.1,244.2,332.3,246.8z"/>
	<path class="st0" d="M332.3,246.8l0-1.2c-9.7-0.2-18.5-1.5-26-3.6l-0.3,1.2l1.2,0.2c0.1-0.8,0.2-1.5,0.2-2.3c0-1.5-0.1-2.8-0.1-3.9
		c0-0.8,0.1-1.5,0.3-2.1l-1.2-0.4l0.7,1c0.8-0.6,2.1-1,3.6-1.2c1.5-0.2,3.2-0.3,4.9-0.5l4.3-0.5l-3.9-1.9c-2.1-1-4.7-1.6-7.3-1.6
		c-1.2,0-2.4,0.1-3.5,0.4l0.3,1.2l1.2-0.1c-0.1-1.3-0.4-2.3-0.8-3.2c-0.4-0.9-0.8-1.6-1-2.4l-1.2,0.4l0.4,1.2
		c1.4-0.5,2.9-1.5,4.7-2.6c2.6-1.7,5.7-4,8.8-5.7c3.1-1.8,6.1-3,8.5-3c1,0,1.9,0.2,2.7,0.7l0.6-1.1l-0.6,1.1
		c0.2,0.1,0.5,0.4,0.9,0.8c0.5,0.7,1.1,1.9,1.5,3.3c1.4,4.2,2.1,10.4,2.2,14.1l0,0l0,0c0,0.6,0,1.1,0,1.7c0,1.9-0.2,3.8-0.6,5.5
		c-0.4,1.6-0.9,3-1.6,3.9L332.3,246.8l0-1.2L332.3,246.8l1,0.7c0.9-1.3,1.6-3,2-4.8c0.4-1.9,0.6-3.9,0.6-6c0-0.6,0-1.2,0-1.8
		l-1.2,0.1l1.2-0.1c-0.1-2.9-0.6-7.3-1.4-11.2c-0.4-2-1-3.8-1.7-5.4c-0.3-0.8-0.7-1.5-1.2-2.1c-0.4-0.6-1-1.1-1.6-1.5l0,0l0,0
		c-1.2-0.7-2.6-1-3.9-1c-2.1,0-4.3,0.7-6.5,1.7c-3.3,1.5-6.5,3.7-9.4,5.6c-1.4,1-2.8,1.9-4,2.7c-1.2,0.7-2.2,1.3-2.9,1.6l-1.2,0.4
		l0.4,1.2c0.3,1,0.8,1.7,1.1,2.5c0.3,0.8,0.5,1.5,0.6,2.4l0.1,1.5l1.5-0.4c0.9-0.2,1.9-0.4,2.9-0.4c2.2,0,4.5,0.5,6.3,1.4l0.5-1.1
		l-0.1-1.2c-1.6,0.2-3.3,0.3-5,0.5c-1.7,0.3-3.3,0.7-4.6,1.7l-0.3,0.2l-0.1,0.4c-0.4,1-0.4,2-0.4,3c0,1.3,0.1,2.6,0.1,3.9
		c0,0.6,0,1.3-0.1,1.9l-0.2,1.1l1,0.3c7.8,2.2,16.8,3.5,26.6,3.7l0.7,0l0.4-0.5L332.3,246.8z"/>
	<path class="st0" d="M285.6,230.8c0,0.7,0,1.5-0.1,2.2c-3,2-7.9,2-11.3,3.7c4.9,0.2,8.8,1.5,12.2,3c-0.1,1.8-0.1,3.8-0.2,5.6
		c-5.6,3.8-10.7,9.5-17.3,13.2c-3.2,1.7-14,6.1-17.3,5.2c-1.8-0.5-2.1-2.8-2.8-5c-1.6-4.6-5.2-12.2-5.6-19.3
		c-0.4-8.9-1.3-23.9,8.3-22.1c7.8,1.5,16.8,5,22.8,8.3C277.9,227.9,280,230.3,285.6,230.8"/>
	<path d="M285.6,230.8c0,0.7,0,1.5-0.1,2.2c-3,2-7.9,2-11.3,3.7c4.9,0.2,8.8,1.5,12.2,3c-0.1,1.8-0.1,3.8-0.2,5.6
		c-5.6,3.8-10.7,9.5-17.3,13.2c-3.2,1.7-14,6.1-17.3,5.2c-1.8-0.5-2.1-2.8-2.8-5c-1.6-4.6-5.2-12.2-5.6-19.3
		c-0.4-8.9-1.3-23.9,8.3-22.1c7.8,1.5,16.8,5,22.8,8.3C277.9,227.9,280,230.3,285.6,230.8z"/>
	<path class="st0" d="M285.6,230.8h-1.2c0,0.7,0,1.4-0.1,2l1.2,0.2l-0.7-1c-1.3,0.8-3.1,1.3-5.1,1.8c-2,0.5-4.2,0.9-6.1,1.8
		l-4.2,2.1l4.7,0.2c4.7,0.2,8.4,1.4,11.7,2.9l0.5-1.1l-1.2-0.1c-0.1,1.9-0.1,3.8-0.2,5.6l1.2,0.1l-0.7-1c-2.9,2-5.6,4.4-8.4,6.7
		c-2.8,2.4-5.7,4.6-8.8,6.4l0.6,1.1l-0.6-1.1c-1.3,0.7-4.4,2.1-7.5,3.2c-1.6,0.6-3.2,1.1-4.6,1.4c-1.4,0.4-2.7,0.6-3.6,0.6
		c-0.3,0-0.6,0-0.7-0.1l0,0c-0.2-0.1-0.4-0.1-0.5-0.3c-0.2-0.3-0.5-0.8-0.7-1.5c-0.2-0.7-0.4-1.5-0.7-2.4l0,0l0,0
		c-0.8-2.4-2.1-5.4-3.3-8.7c-1.1-3.3-2.1-6.9-2.3-10.2l-1.2,0.1l1.2-0.1c-0.1-2.2-0.2-4.7-0.2-7.2c0-3.6,0.3-7.3,1.2-9.8
		c0.5-1.3,1.1-2.3,1.8-2.9c0.7-0.6,1.6-1,2.8-1c0.4,0,0.8,0,1.3,0.1l0,0l0,0c7.6,1.4,16.6,4.9,22.4,8.2l0.6-1.1l-0.6,1.1
		c1.8,1,3.3,2.2,5.1,3.2c1.8,1,3.9,1.8,6.9,2.1L285.6,230.8h-1.2H285.6l0.1-1.2c-2.6-0.2-4.3-0.9-5.9-1.8c-1.6-0.9-3-2-5-3.2l0,0
		l0,0c-6.1-3.4-15.2-6.9-23.2-8.4l0,0l0,0c-0.6-0.1-1.2-0.2-1.8-0.2c-1.7,0-3.3,0.6-4.4,1.6c-1.7,1.5-2.6,3.8-3.1,6.4
		c-0.5,2.6-0.7,5.4-0.7,8.2c0,2.6,0.1,5.1,0.2,7.3l0,0l0,0c0.2,3.7,1.2,7.5,2.4,10.9c1.2,3.4,2.5,6.5,3.3,8.7l0,0
		c0.3,1,0.6,2.2,1,3.2c0.2,0.5,0.5,1.1,0.9,1.5c0.4,0.5,1,0.9,1.7,1l0,0l0,0c0.4,0.1,0.9,0.1,1.3,0.1c1.2,0,2.6-0.3,4.2-0.7
		c2.3-0.6,4.9-1.5,7.2-2.4c2.3-0.9,4.3-1.8,5.5-2.4l0,0l0,0c3.4-1.9,6.4-4.3,9.2-6.7c2.8-2.4,5.5-4.7,8.2-6.6l0.5-0.3l0-0.6
		c0.1-1.9,0.1-3.8,0.2-5.6l0.1-0.8l-0.8-0.4c-3.5-1.6-7.6-2.9-12.6-3.2l-0.1,1.2l0.5,1.1c1.5-0.8,3.5-1.2,5.5-1.6
		c2-0.5,4.1-1,5.9-2.1l0.5-0.3l0.1-0.5c0.1-0.9,0.1-1.7,0.1-2.4v-1.1l-1.1-0.1L285.6,230.8z"/>
	<path class="st0" d="M291.1,241.4c-0.9-4.9-1.8-6.2-1.5-10.5C302.6,222.3,305,245.8,291.1,241.4"/>
	<path d="M291.1,241.4c-0.9-4.9-1.8-6.2-1.5-10.5C302.6,222.3,305,245.8,291.1,241.4z"/>
	<path class="st0" d="M291.1,241.4l1.2-0.2c-0.4-2.1-0.8-3.6-1.1-4.9c-0.3-1.3-0.5-2.3-0.5-3.7c0-0.5,0-1,0.1-1.6l-1.2-0.1l0.7,1
		c1.9-1.3,3.5-1.7,4.7-1.7c0.7,0,1.3,0.2,1.8,0.4c0.8,0.4,1.4,1.1,1.8,1.9c0.4,0.8,0.7,1.9,0.7,2.9c0,1.4-0.4,2.7-1.2,3.7
		c-0.8,0.9-1.9,1.6-3.7,1.6c-0.8,0-1.8-0.1-2.9-0.5L291.1,241.4l1.2-0.2L291.1,241.4l-0.4,1.2c1.3,0.4,2.5,0.6,3.6,0.6
		c2.4,0,4.4-1,5.6-2.5c1.2-1.5,1.8-3.4,1.8-5.3c0-1.9-0.5-3.7-1.7-5.2c-0.6-0.7-1.3-1.4-2.1-1.8c-0.9-0.4-1.9-0.7-2.9-0.7
		c-1.8,0-3.8,0.7-6,2.1l-0.5,0.3l-0.1,0.6c-0.1,0.7-0.1,1.3-0.1,1.8c0,1.6,0.2,2.9,0.5,4.2c0.3,1.3,0.7,2.7,1,4.7l0.1,0.7l0.7,0.2
		L291.1,241.4z"/>
	<path class="st1" d="M309.8,245.3c0,0-4-5.7-1.1-7.4c2.9-1.7,5.7,0,7.4-2.9c1.7-2.9,0-4.6,0.6-8s3.4-4,6.3-4.6
		c2.9-0.6,11-1.7,12.1,1.1l-3.4-10.4l-7-2.3L303,223.4l-1.1,6.3v12.7"/>
	<path class="st1" d="M249.4,264.4c-0.7-9-1.5-17.9-2.2-26.9c-1.2-13.4,3.2-11.1,14.9-11.1c1.8,0,11,2.1,11.6,3.4
		c3.2,6.5-5.2,5,3.7,9.9c7.4,4,20.7-2.4,17.7-11.6c-1.7-2.1-8.8-0.6-11.3-2c-4.5-2.3-9-4.6-13.5-7c-5.7-2.9-18.9-7.3-25-3.2
		c-15.5,10.5,1,36.8,6.5,47.8"/>
	<path class="st2" d="M264.6,60.4c-15.7-3.7-23.5,6.6-28.3,17.2c-4.3-1-2.6-6.8-1.5-9.8c2.8-7.7,14.1-18,23.4-16.6
		C262.2,51.7,267.5,55.4,264.6,60.4"/>
	<path class="st2" d="M341,78.2h0.7c3.5,7.3,6.6,15.1,11.1,21.7c-3,7.1-22.7,13.2-22.4,0.7c4.3-1.8,11.6-0.4,15.4-2.8
		C343.6,91.8,340.6,86.7,341,78.2"/>
	<path class="st2" d="M272.5,78.4c3.4,6.2,4.5,12.7,9.3,17.3c2.2,2.1,6.3,4.6,4.3,10.5c-0.5,1.3-4,4.4-6.1,5
		c-7.4,2.2-24.9,0.5-19-8.9c6.2,0.2,14.5,4,19.1-0.5C276.5,96.2,270.2,85,272.5,78.4"/>
	<path class="st2" d="M338.2,141.1c-11.2,7.2-23.8,15.1-42.3,13.3c-3.9-3.4-5.5-11.1-1.6-16.1c2,3.4,0.7,9.8,6.3,10.7
		c10.5,1.8,22.7-6.5,30.2-9.3c4.6-7.9-0.4-10.7-4.6-15.9c-8.7-10.4-20.1-23.3-19.8-38.8c3.5-2.6,3.8,3.9,4.3,5
		c4.5,10.5,15.9,24,24,33c2.1,2.2,5.4,4.4,5.7,5.9C341.7,133.2,337.8,138.3,338.2,141.1"/>
	<path class="st2" d="M189.7,133.5c-3.5-2.1-4.4-10.9-8.5-11.1c-6-0.4-4.9,11.5-4.9,18.4c-4-3.7-4.8-15.1-1.8-21
		c-3.4-1.7-4.9,1.8-6.8,3C170.2,105.2,193.6,114.7,189.7,133.5"/>
	<path class="st2" d="M345.3,148.5c-5.2,10-12.7,21-28,21.3c-0.4-3.2-0.6-8.2,0-10.1C329.1,158.5,336.4,152.5,345.3,148.5"/>
	<path class="st2" d="M271.7,155c9.8,5.1,27.8,5.7,41.2,5.4c0.7,2.9,0.7,6.6,0.7,10.1C296.4,171.2,276.2,166.9,271.7,155"/>
	<path class="st2" d="M269.8,164.5c6.8,17.1,30.1,15.1,49.7,14.6c-0.9,2.2-2.7,4.9-5.1,5.7c-6.3,2.6-23.7,4.5-32.4-0.1
		c-5.5-2.9-9.1-9.6-12.2-13.5C268.5,169.4,261.2,164.6,269.8,164.5"/>
	<path class="st10" d="M337.4,258.5c-7.9,13.7-15.6,27.7-25,39.6c3.9-11.6,5.6-31.1,6.2-46C326.9,248.3,334,253,337.4,258.5"/>
	<path class="st2" d="M380.2,307.5c-8.9,1.8-15.1,10.5-23.9,9.9C361.2,310.7,369.5,307.8,380.2,307.5"/>
	<path class="st2" d="M384.1,321.4c-7.3,0.7-15.9,2-23.2,1.3C364.5,317.4,377.9,319.3,384.1,321.4"/>
	<path class="st2" d="M386.7,333.5c-8.2,0.1-18.3,0-26.1-0.6C365.2,327.9,381.4,331.1,386.7,333.5"/>
	<path class="st6" d="M322,366.4c1.2,10.2,5.2,20.6,4.8,31.8c-4.5,1.5-7.1,2.8-13.2,2.8c-0.4-9.5-1.7-24.1-1.3-33.3
		C315.2,368,319.6,365.7,322,366.4"/>
	<path class="st3" d="M308.9,215.2c-4.1,2.7-7.6,6-11.6,8.9c-8.8,0.5-13.5-0.6-19.9-5.6c0.1-0.4,0.7-0.2,0.7-0.7
		C287.5,221.9,299.5,216.1,308.9,215.2"/>
	<path class="st10" d="M259.8,279c2.6-11.1,12.7-16.9,21.8-23c9.4,11.9,15.1,27.3,21.5,42.2C288.1,293.6,272.9,286.4,259.8,279"/>
	<path class="st2" d="M312.3,367.9c-0.4,9.1,0.9,23.7,1.3,33.3c6.1,0,8.7-1.3,13.2-2.8c0.5-11.2-3.5-21.6-4.8-31.8
		C319.6,365.7,315.2,368,312.3,367.9z M218.1,316.2c4,36.7,9.8,67.4,20.4,100c23.5,7.2,51.8,7.8,72.7,1.3
		c-3.8-18.3-2.2-40.6-4.4-60.2c-1.7-14.8-0.9-29.5-3.2-44.5C278.4,307.5,242.8,311.5,218.1,316.2z M309.6,313
		c-0.2,15.7,0.7,31.3,2,47.1c6.1-0.9,10.1-1.5,15.7-2.8c-1.8-15.1-1.6-32.3-5.4-45.7C317.6,311.7,313.9,311.5,309.6,313z
		 M340.2,310.4c-2.9-0.6-6.2,0-8.9,0c1.3,12.8,4.4,26.9,5.5,40.5c4.3,0.1,6.6-2,10.1-2.6C347.1,336.5,345.9,320.2,340.2,310.4z
		 M386.7,352.9c9-2.2,14.6-13.2,12.1-24.5c-1.7-7.6-4.6-21.9-7.9-26.8c-2.3-3.5-8.8-8.3-14-5c-8.4,5.4-23.2,7-29.3,13.4
		c3,10.2,4,24.1,5.2,37.1c10.5,0.6,23.3-2.9,32.1,0.9c-6.1,2-13.9,2-19.1,4.9C370.1,354.8,380.1,354.5,386.7,352.9z M303,298.1
		c-6.3-14.9-12.1-30.2-21.5-42.2c-9.1,6.1-19.1,11.9-21.8,23C272.9,286.4,288.1,293.6,303,298.1z M318.6,252.2
		c-0.6,14.9-2.3,34.4-6.2,46c9.4-12.1,17.1-26,25-39.6C334,253,326.9,248.3,318.6,252.2z M300.9,245.9c-3.5-0.4-6.6,4.1-11.2,2.2
		c-1.1,1.2-2.1,2.4-3.2,3.7c10.2,12.4,15,30,22.9,44.5c4.3-14,3.8-29.3,4.8-44.5C308.4,252,305.1,246.3,300.9,245.9z M289.6,230.9
		c-0.4,4.3,0.6,5.6,1.5,10.5C305,245.8,302.6,222.3,289.6,230.9z M274.1,225.8c-6-3.3-15-6.8-22.8-8.3c-9.6-1.8-8.7,13.2-8.3,22.1
		c0.4,7.1,4,14.5,5.6,19.3c0.7,2.2,1,4.5,2.8,5c3.3,0.7,14.3-3.5,17.3-5.2c6.6-3.5,11.7-9.3,17.3-13.2c0.1-1.8,0.1-3.8,0.2-5.6
		c-3.4-1.7-7.2-2.8-12.2-3c3.3-1.7,8.3-1.7,11.3-3.7c0-0.7,0-1.5,0.1-2.2C280,230.3,277.9,227.9,274.1,225.8z M216.8,215.5
		c-5,5.1,14,11.9,20,12.3c0-3.2,1.8-6.2,1.5-8.5C231.1,218,221.7,218.9,216.8,215.5z M278.3,217.8c0,0.5-0.6,0.4-0.7,0.7
		c6.5,5,11.2,6.1,19.9,5.6c3.9-2.8,7.4-6.2,11.6-8.9C299.5,216.1,287.5,221.9,278.3,217.8z M334.6,234.8c-0.2-5.6-1.7-17.2-5.2-19.3
		c-7.3-4.3-20.2,8.7-25.7,10.6c0.6,1.7,1.6,3,1.7,5.2c3.3-0.9,7.2-0.2,10,1.1c-3.3,0.4-6.8,0.4-9,2c-0.7,2.3,0.2,5.4-0.4,8.5
		c7.7,2.2,16.6,3.3,26.3,3.7C334.1,244.2,334.8,239.6,334.6,234.8z M208.4,220.3c-1.6-1.1-12.2-14.9-13.7-14.3
		c-19.1,7.6-37.1,20.6-53,33c15.2,32.8,21.5,72.9,22.6,111.6c17.4,8.2,32.8,20,56.6,21.2c-2.8-19.4-5.2-36.8-6.8-55.1
		c-6-2.6-14.5,0.1-20.1-0.7c0-6.7,8.5-2.9,9.3-7.4c0.5-3.4-4.8-3.7-3-9c4.4,1.6,6.7,5.1,11.3,6.5c4.3-9.3,0-25.7,0.6-33.5
		c0.1-1.5,0.7-8,4-7c2.9,1-0.1,17.7,0.1,25c0.2,6.8-0.9,13.3,2,17.6c22.9-3.2,46.2-5.1,71.1-5.9c-5.5-2.3-11.9-4.5-19-8.5
		c-3.9-2.2-16-6.7-17.1-10.4c-1.8-5.9,4.6-8.9,5.7-13.9c-11.6,6.3-13.8-6.1-16.6-14.8c-2.4-7.9-3.9-13.9-4.5-18.4
		C227.7,231.2,216.9,226.4,208.4,220.3z M324.5,207.7c16-7.7,18.9,28.9,12.6,40.7c1,3.5,4.3,4.9,5.6,8c-8.9,16-18.8,30.8-27.9,46.6
		c6.7-4.3,16.5-0.7,24.4-3.9c2.9-1.1,5-7.8,7.2-13.2c6.1-14.6,12.4-33.2,15.2-47.1c0.6-3.2,2.4-10.1,2-12.9
		c-0.7-5.1-7.6-8.9-11.1-11.9c-6.5-5.9-10.5-10.9-17.3-16.3C332.5,201.7,326.7,204.4,324.5,207.7z M171.9,66.1
		c-7.6,8.4-6,24-5.1,35.2c13.8-8.7,31.9,0.7,31.8,15.4c6.6-0.1,2.4-8.2,1.2-13.4c-3.9-16.9,6.6-35.2,0.5-50.7
		C188.5,53.5,178.9,58.3,171.9,66.1z M226.3,17.4C209.1,22.3,187,34.9,180,50.4c5.5-0.9,9.3-3.5,14.6-3.9c2.1-0.1,4.8,0.9,7.1,0.2
		c4.6-1.2,8.7-11.7,12.2-15.6c3.4-3.8,7.6-5.5,10.4-8.9c1.8-0.9,4.5-0.9,4.6-3.5C228.1,17.8,227.3,17.2,226.3,17.4z M315.9,22.1
		C298,12,267.8,4.4,248.7,13.9c-15.4,7.7-36.1,20.4-43.2,36.3c6.6,15.5-2,29.6-2.6,45.4c-0.2,8.4,3.9,15.6,4.3,24.8
		c-2.3,3.8-9.1,4.1-13.9,3.9c-1.6-8-4.4-17.1-12.7-18c-11.7-1.3-20.4,8.4-20.9,18.5c-0.6,11.9,9.1,31.7,23,30.4
		c5.4-0.5,6.7-5.9,12.6-5.9c3.2,6.3-4.9,8.3-5.7,12.8c-0.2,1.2,0.6,5.7,1.2,7.9c2.6,10.4,8.2,23.9,13.7,31.8
		c7.1,10.1,20.9,11.6,35.7,12.6c2.7-5.7,12.4-5.2,18.8-3.8c-7.7-3-14.8-10.4-20.6-16.8c-6.7-7.4-13.5-15.4-13.9-25.1
		c12.8,17.7,23.3,33.2,46.5,41c17.6,5.9,38-2.7,51.6-12.2c5.6-3.9,8.9-10.2,12.9-15.9c14.9-21.5,21.8-51.9,20.4-81.6
		c-0.6-12.2-0.6-24.4-4.8-32.6c-4.3-8.5-18.8-16.3-27.3-8.5c-1.6-8.4,7.1-13.5,17.2-10.5C333.9,39,326.3,27.9,315.9,22.1z
		 M349.3,297.8c14-6.9,40.1-18.7,48.8,0c3.3,7,7.1,18.5,8.7,25.7c2.3,10-2.6,31.2-12.9,34.5c-9.1,2.9-19.8,2.8-30.7,0.6
		c-1.3-1.1-2.7-2.9-3.8-4.9c-7.8-0.2-15.2,0.4-21.3,3.7c0.6,5.9-3.3,6.7-7.1,7.9c-2.7,10.9,5.5,25,3.5,34.8
		c-1.3,7.1-10,8.2-16.3,9.4c-0.2,3.9,0.2,7.2,0.7,10.5c-1.5,5.4-7.9,8.4-14.1,9.1c-20.4,2.4-51.2,3.5-70.7-3.5
		c-5.5-13.4-9.8-29.6-14.3-44.9c-19,2.1-34.5-8.2-49-15c-5-2.3-11.9-3.7-13.9-7.7c-1.8-3.9-1.1-11.3-1.6-18.3
		c-1.1-17.9-2.2-35.2-6.8-53.5c-2.1-8.3-5.9-15.5-8.4-23.4c-2.4-7.3-6.6-16.5-7.7-23.8c-1.6-10.9,8.7-11.5,15.1-16.2
		c10.1-7.3,18-11.3,29-17.9c3.3-2,13-6.8,14.1-9.1c2.2-4.5-3.8-10.9-5.4-14.4c-2.6-5.6-3.9-10.4-4.3-15.9c-9.1-1.5-16.2-7-20.4-13
		c-7-10.2-11.8-29.1-5.7-43.4c0.5-1.1,2.8-3.4,3.2-5.1c0.7-3.4-1.3-7.9-1.5-11.6c-0.6-18.7,3.2-34.8,15.7-40.4
		c5.1-20.4,23.4-27.1,40.6-37.2c6.5-3.8,13.5-6.2,20.9-8.9c26.2-9.6,66.6-7.8,88.4,8.7c9.3,7,24,21.7,29.3,32.4
		c14,28.2,12.9,75.4,3.2,109.7c-1.3,4.6-3.2,11.3-5.9,16.9c-1.8,3.9-7.6,11.6-7,15c0.7,3.5,13.2,12.9,15.9,15.5
		c4.8,4.6,13.9,10.7,14.6,16.6c0.9,6.2-2.7,14.8-4.5,20.7C361.9,261.4,356,279.8,349.3,297.8z"/>
	<path class="st7" d="M256.1,159.2c0.7-1,4.9-2.6,10.7,0.2c0,0-7,1.1-6.3,12.7l-2.9-0.6C257.6,171.7,254.6,161.2,256.1,159.2"/>
	<path class="st11" d="M306.5,258.3c0,1.7-1.5,3.2-3.2,3.2c-1.7,0-3.2-1.5-3.2-3.2c0-1.7,1.5-3.2,3.2-3.2
		C305.2,255.1,306.5,256.6,306.5,258.3"/>
	<path class="st11" d="M309.7,273c0,1.7-1.5,3.2-3.2,3.2c-1.7,0-3.2-1.5-3.2-3.2c0-1.7,1.5-3.2,3.2-3.2
		C308.4,269.8,309.7,271.2,309.7,273"/>
	<path class="st2" d="M143.6,459.6c-1,0.1-1.8,0.2-2.6,0.4c-0.7,0.1-1.5,0.2-2.4,0.5c-1.1,0.2-1.7,0.7-2,1.5
		c-0.2,0.7-0.5,1.5-0.5,2.4v29.8c0,2.7-0.6,5.2-1.7,7.6c-1.1,2.3-2.6,4.1-4.5,5.7c-2,1.5-4.1,2.7-6.6,3.4c-2.4,0.7-5,1.2-7.7,1.2
		c-4.8,0-8.5-1.1-11.5-3.4c-2.9-2.3-4.4-5.4-4.4-9.4c0-2.3,0.6-4.3,2-5.9c1.3-1.6,3.2-2.3,5.5-2.3c2.2,0,3.9,0.6,5.2,2
		c1.3,1.3,2,2.9,2,4.8c0,1.6-0.6,3.2-1.7,4.5c-1.1,1.3-2.4,2.7-3.9,3.8v0.5c0.2,0.5,0.7,1,1.5,1.3c0.7,0.4,1.6,0.5,2.3,0.5
		c3,0,5.5-1.1,7.2-3.3c1.7-2.2,2.6-5.5,2.6-9.9v-30.5c0-0.9-0.1-1.7-0.4-2.3c-0.2-0.6-1-1.1-2.1-1.6c-0.7-0.4-1.7-0.6-2.8-0.9
		c-1.1-0.2-2-0.4-2.7-0.5v-2.9h28.8v3H143.6z"/>
	<path class="st2" d="M188.8,501.5c-0.9,1.5-2,2.8-3.2,4.1c-1.2,1.3-2.7,2.3-4.3,3.3c-1.7,1-3.4,1.7-5.1,2.2c-1.7,0.5-3.8,0.7-6,0.7
		c-3.8,0-7-0.5-9.8-1.6c-2.7-1.1-5-2.4-6.7-4.3c-1.8-1.8-3-3.9-4-6.3c-0.9-2.4-1.3-5.1-1.3-7.9c0-2.6,0.5-5.1,1.5-7.4
		c1-2.3,2.3-4.5,4-6.3c1.7-1.8,3.9-3.3,6.6-4.4c2.7-1.1,5.6-1.7,8.8-1.7c3.5,0,6.5,0.5,8.8,1.3c2.3,0.9,4.1,2.1,5.6,3.5
		c1.5,1.5,2.4,3.2,3.2,5.1c0.6,2,1,4,1,6.2v2.4h-25.7c0,5.2,1,9.1,3,11.8c2,2.7,5.2,4,9.5,4c2.4,0,4.5-0.6,6.5-2
		c2-1.3,3.5-2.9,4.9-5L188.8,501.5z M174.2,487c0-1.5-0.1-3-0.2-4.6c-0.1-1.6-0.4-2.9-0.9-3.9c-0.5-1.2-1-2.1-1.8-2.7
		c-0.7-0.6-1.7-0.9-2.8-0.9c-2,0-3.5,1-4.6,2.9c-1.2,2-1.8,5.1-2,9.4L174.2,487z"/>
	<path class="st2" d="M242.5,510.5h-22.9v-2.8c0.5,0,1.1-0.1,1.7-0.2c0.7-0.1,1.2-0.2,1.6-0.4c0.5-0.2,0.9-0.7,1.1-1.2
		c0.2-0.5,0.4-1.3,0.4-2.3v-17.8c0-2.6-0.5-4.5-1.5-5.9c-1-1.3-2.3-2-4.3-2c-1,0-2,0.1-2.8,0.5c-0.9,0.2-1.7,0.7-2.6,1.3
		c-0.7,0.5-1.3,1-1.8,1.6c-0.5,0.5-0.9,1-1.1,1.5v20.4c0,0.9,0.1,1.6,0.4,2.2c0.2,0.6,0.7,1.1,1.2,1.3c0.4,0.2,0.9,0.5,1.5,0.6
		c0.6,0.1,1.2,0.2,1.8,0.4v2.8H192v-2.8c0.6,0,1.2-0.1,2-0.2c0.6-0.1,1.2-0.2,1.7-0.4c0.9-0.2,1.3-0.7,1.7-1.3
		c0.2-0.6,0.5-1.3,0.5-2.3v-22.2c0-0.7-0.2-1.6-0.6-2.3c-0.4-0.7-1-1.3-1.6-1.8c-0.5-0.2-1-0.6-1.7-0.7c-0.7-0.2-1.5-0.4-2.3-0.4
		v-2.8l18.2-1l0.6,0.6v5.5h0.1c0.7-0.6,1.6-1.3,2.6-2.3c1-0.9,2-1.6,2.8-2.2c1-0.6,2.2-1.1,3.7-1.6c1.5-0.5,3.2-0.6,4.9-0.6
		c4.1,0,7.2,1.2,9.3,3.5c2.1,2.3,3,5.5,3,9.4v18.7c0,1,0.1,1.7,0.4,2.2c0.2,0.6,0.9,1,1.6,1.3c0.4,0.1,0.9,0.4,1.5,0.5
		c0.6,0.1,1.2,0.2,2.1,0.4v2.9H242.5z"/>
	<path class="st2" d="M295,510.5H277c-2.2-3.9-4.3-7.2-6.1-9.9s-3.5-5.2-5.1-7.4l-2.2,2v8.3c0,0.9,0.1,1.7,0.4,2.2
		c0.2,0.6,0.7,1,1.6,1.3c0.5,0.2,1,0.4,1.6,0.5c0.6,0.1,1.2,0.2,1.8,0.2v2.8h-23.7v-2.8c0.6,0,1.2-0.1,2-0.2
		c0.6-0.1,1.2-0.2,1.7-0.4c0.9-0.2,1.3-0.7,1.7-1.3c0.2-0.6,0.5-1.3,0.5-2.3V461c0-0.9-0.2-1.7-0.6-2.6c-0.4-0.9-0.9-1.6-1.6-2.1
		c-0.5-0.2-1.2-0.6-2.2-0.7c-1-0.2-1.8-0.4-2.7-0.4v-2.8l18.9-1l0.6,0.6v39.3c1.8-1.7,4-3.7,6.3-5.9s4.3-4,5.6-5.5
		c0.9-0.9,1.3-1.5,1.3-2c0.1-0.5,0.1-0.7,0.1-0.9c0-0.5-0.4-0.9-1.2-1.1c-0.9-0.2-2-0.6-3.7-0.9v-2.7h19.3v2.7
		c-2.6,0.7-4.5,1.3-5.9,2c-1.3,0.6-2.8,1.5-4.4,2.4c-1.1,0.7-2.1,1.5-3,2.2c-1,0.7-2.1,1.7-3.4,2.8c2.4,3.7,4.8,6.9,6.8,10
		c2.1,3,4.3,6.3,6.6,9.8c0.7,1.2,1.7,2,2.9,2.4c1.2,0.4,2.3,0.6,3.5,0.7v2.9H295z"/>
	<path class="st2" d="M319.3,510.5h-24v-2.8c0.6,0,1.3-0.1,2-0.2c0.6-0.1,1.2-0.2,1.6-0.4c0.9-0.2,1.3-0.7,1.7-1.3
		c0.4-0.6,0.5-1.3,0.5-2.3v-22.2c0-0.9-0.2-1.7-0.6-2.3c-0.4-0.7-0.9-1.2-1.5-1.6c-0.5-0.2-1.1-0.6-2.1-0.9c-1-0.2-1.8-0.5-2.6-0.5
		v-2.8l18.7-1l0.6,0.6v30.2c0,0.9,0.2,1.6,0.6,2.3c0.4,0.6,1,1.1,1.6,1.3c0.5,0.2,1.1,0.5,1.7,0.6c0.6,0.1,1.2,0.2,2,0.4v2.8H319.3z
		 M313.9,458.7c0,2-0.7,3.5-2.2,4.9c-1.5,1.3-3.3,2.1-5.2,2.1c-2.1,0-3.8-0.7-5.4-2.1c-1.5-1.3-2.2-3-2.2-4.9c0-2,0.7-3.5,2.2-5
		c1.5-1.3,3.3-2.1,5.4-2.1c2.1,0,3.8,0.7,5.2,2.1C313.1,455.1,313.9,456.8,313.9,458.7z"/>
	<path class="st2" d="M373.1,510.5h-22.9v-2.8c0.5,0,1.1-0.1,1.7-0.2c0.7-0.1,1.2-0.2,1.6-0.4c0.5-0.2,0.9-0.7,1.1-1.2
		c0.2-0.5,0.4-1.3,0.4-2.3v-17.8c0-2.6-0.5-4.5-1.5-5.9c-1-1.3-2.3-2-4.3-2c-1,0-2,0.1-2.8,0.5c-0.9,0.4-1.7,0.7-2.6,1.3
		c-0.7,0.5-1.3,1-1.8,1.6c-0.5,0.5-0.9,1-1.1,1.5v20.4c0,0.9,0.1,1.6,0.4,2.2c0.2,0.6,0.7,1.1,1.2,1.3c0.4,0.2,0.9,0.5,1.5,0.6
		c0.6,0.1,1.2,0.2,1.8,0.4v2.8h-23.2v-2.8c0.6,0,1.2-0.1,2-0.2c0.6-0.1,1.2-0.2,1.7-0.4c0.9-0.2,1.3-0.7,1.7-1.3
		c0.2-0.6,0.5-1.3,0.5-2.3v-22.2c0-0.7-0.2-1.6-0.6-2.3c-0.4-0.7-1-1.3-1.6-1.8c-0.5-0.2-1-0.6-1.7-0.7c-0.7-0.2-1.5-0.4-2.3-0.4
		v-2.8l18.2-1l0.6,0.6v5.5h0.1c0.7-0.6,1.6-1.3,2.6-2.3c1-0.9,2-1.6,2.8-2.2c1-0.6,2.2-1.1,3.7-1.6c1.5-0.5,3.2-0.6,4.9-0.6
		c4.1,0,7.2,1.2,9.3,3.5c2.1,2.3,3,5.5,3,9.4v18.7c0,1,0.1,1.7,0.4,2.2c0.2,0.6,0.9,1,1.6,1.3c0.4,0.1,0.9,0.4,1.5,0.5
		c0.6,0.1,1.2,0.2,2.1,0.4v2.9H373.1z"/>
	<path class="st2" d="M394.2,511.9c-2.4,0-4.9-0.4-7.2-1.1c-2.3-0.7-4.1-1.5-5.5-2.3l-1.1,2.6h-2.9l-0.5-14.1h2.8
		c0.4,1.1,1,2.4,2,3.9c0.9,1.5,2,2.7,3,3.9c1.2,1.1,2.6,2.1,4.1,2.9c1.6,0.7,3.2,1.2,4.9,1.2c2.3,0,4-0.5,5.1-1.3
		c1.1-0.9,1.7-2.3,1.7-4.1c0-1-0.2-1.8-0.7-2.6c-0.5-0.6-1.2-1.2-2.1-1.7c-1-0.5-2.1-1-3.3-1.3c-1.2-0.4-2.7-0.7-4.4-1.3
		c-1.7-0.5-3.2-1-4.4-1.6c-1.2-0.5-2.6-1.3-3.8-2.4c-1.1-1-2.1-2.2-2.7-3.5c-0.7-1.3-1-3-1-5c0-3.5,1.5-6.5,4.5-8.7
		c3-2.2,7-3.3,11.8-3.3c2.3,0,4.4,0.2,6.3,0.7c2,0.5,3.5,1,4.9,1.6l0.9-2.2h2.9l0.6,12.9h-2.7c-0.9-2.7-2.4-4.9-4.5-6.8
		c-2.2-2-4.5-2.9-7-2.9c-2,0-3.5,0.4-4.6,1.2c-1.1,0.9-1.7,2-1.7,3.4c0,2,0.9,3.3,2.4,4.1c1.6,0.9,3.9,1.7,6.8,2.4
		c4.5,1.2,7.8,2.8,10,4.8c2.1,2.1,3.2,4.6,3.2,7.7c0,4.1-1.6,7.4-4.9,9.6C403.7,510.7,399.5,511.9,394.2,511.9z"/>
</g>
</svg>
