<?xml version="1.0" encoding="utf-8"?>
<!-- Generator: Adobe Illustrator 26.5.0, SVG Export Plug-In . SVG Version: 6.00 Build 0)  -->
<svg version="1.1" id="Layer_1" xmlns="http://www.w3.org/2000/svg" xmlns:xlink="http://www.w3.org/1999/xlink" x="0px" y="0px"
	 viewBox="0 0 512 512" style="enable-background:new 0 0 512 512;" xml:space="preserve">
<style type="text/css">
	.st0{fill:#C63D14;}
	.st1{fill:#FFFFFF;}
</style>
<g id="XMLID_1_">
	<path id="XMLID_2_" class="st0" d="M458.79,252.05c0-26.36-21.32-47.68-47.68-47.68c-1.68,0-3.37,0.14-5.05,0.28l65.49-192.96
		H193.47l65.35,192.82c-0.98,0-1.96-0.14-2.94-0.14c-26.36,0-47.68,21.32-47.68,47.68c0,21.32,13.88,39.27,33.24,45.44
		c-10.1,17.67-23,33.52-37.44,47.12c-19.77,18.65-42.35,32.67-66.75,41.51c-29.03-15.01-42.77-48.24-30.43-77.27
		c1.4-3.23,2.8-6.59,4.21-9.96c21.04-4.91,36.74-23.84,36.74-46.42c0-26.36-21.32-47.68-47.68-47.68s-47.68,21.32-47.68,47.68
		c0,16.13,7.99,30.43,20.33,38.99c-11.78,26.79-29.17,54.97-34.5,87.51c-6.45,38.99,0,80.5,33.8,103.91
		c78.67,54.55,163.94-33.8,253.97-55.95c32.67-7.99,68.43-6.73,97.18-23.42c21.6-12.48,35.76-33.24,39.83-56.51
		c3.93-23-1.82-45.86-15.15-64.37C454.59,274.35,458.79,263.69,458.79,252.05z M303.55,252.19v-0.14c0-17.25-9.26-32.39-23-40.81
		l52.03-105.18l52.17,106.3c-12.76,8.55-21.18,23.14-21.18,39.69c0,0.28,0,0.7,0,0.98L303.55,252.19z"/>
	<path id="XMLID_5_" class="st1" d="M470.43,252.05c0-28.89-20.9-53.15-48.38-58.2L487.68,0.05H177.2l65.77,194.23
		c-26.5,5.89-46.42,29.59-46.42,57.92c0,21.18,11.22,39.83,28.05,50.34c-8.13,12.06-17.67,23.42-28.61,33.8
		c-17.39,16.41-36.88,28.89-57.78,37.16c-21.04-13.18-30.01-38.14-20.75-60.02l0.7-1.68c0.42-1.12,0.84-2.1,1.4-3.23
		c23.14-8.13,39.83-30.15,39.83-55.95c0-32.67-26.64-59.32-59.32-59.32s-59.32,26.64-59.32,59.32c0,16.55,6.73,31.41,17.67,42.21
		c-1.96,4.21-4.07,8.55-6.17,12.9c-9.96,20.47-21.32,43.75-25.52,69.56c-8.55,51.19,5.19,92.13,38.56,115.27
		c20.19,14.02,40.81,19.49,61.56,19.49c38.99,0,78.39-19.63,116.96-38.71c27.77-13.74,56.51-28.05,84.84-35.06
		c10.52-2.66,21.46-4.21,32.96-5.89c22.86-3.23,46.42-6.73,67.31-18.79c24.26-14.02,40.81-37.58,45.44-64.51
		c4.07-23.14-0.84-46.42-12.62-66.05C467.21,273.93,470.43,263.41,470.43,252.05z M447.15,252.05c0,19.91-16.13,36.04-36.04,36.04
		c-19.91,0-36.04-16.13-36.04-36.04s16.13-36.04,36.04-36.04C430.89,216.01,447.15,232.28,447.15,252.05z M455.29,23.33
		l-58.06,171.09c-2.52,0.56-4.91,1.4-7.29,2.24L332.58,79.7l-57.5,116.26c-2.52-0.84-5.05-1.54-7.71-2.1L209.6,23.33H455.29z
		 M255.87,216.01c19.91,0,36.04,16.13,36.04,36.04s-16.13,36.04-36.04,36.04s-36.04-16.13-36.04-36.04S235.96,216.01,255.87,216.01z
		 M100.07,216.43c19.91,0,36.04,16.13,36.04,36.04c0,19.91-16.13,36.04-36.04,36.04s-36.04-16.13-36.04-36.04
		C64.03,232.56,80.3,216.43,100.07,216.43z M451.36,345.03c-3.51,20.19-15.99,37.86-34.22,48.38c-16.97,9.82-37.3,12.76-58.9,15.85
		c-11.5,1.68-23.56,3.37-35.2,6.31c-30.85,7.57-60.72,22.44-89.61,36.74c-57.78,28.75-107.84,53.57-154.82,20.9
		c-34.5-23.84-32.96-68.15-28.89-92.42c3.79-22.44,13.74-43.19,23.56-63.11c1.68-3.51,3.37-6.87,4.91-10.24
		c4.77,1.96,9.96,3.23,15.29,3.79c-9.96,32.67,5.61,68.29,38.42,85.12l4.49,2.24l4.77-1.68c25.8-9.26,49.64-23.98,70.82-43.89
		c13.6-12.9,25.38-27.21,35.06-42.35c2.94,0.42,5.89,0.7,8.83,0.7c32.67,0,59.32-26.64,59.32-59.32c0-17.53-7.71-33.38-19.91-44.31
		l37.3-75.31l37.58,76.71c-11.36,10.8-18.37,25.94-18.37,42.77c0,32.67,26.64,59.32,59.32,59.32c12.62,0,24.26-3.93,33.8-10.66
		C451.5,314.32,454.03,329.74,451.36,345.03z"/>
</g>
</svg>
