<?xml version="1.0" encoding="utf-8"?>
<!-- Generator: Adobe Illustrator 19.0.0, SVG Export Plug-In . SVG Version: 6.00 Build 0)  -->
<svg version="1.1" id="Layer_1" xmlns="http://www.w3.org/2000/svg" xmlns:xlink="http://www.w3.org/1999/xlink" x="0px" y="0px"
	 viewBox="0 0 500 500" style="enable-background:new 0 0 500 500;" xml:space="preserve">
<style type="text/css">
	.st0{fill:#FFFFFF;}
	.st1{fill:url(#XMLID_16_);}
	.st2{clip-path:url(#XMLID_17_);fill:url(#XMLID_21_);}
	.st3{fill:#231F20;}
</style>
<g id="XMLID_23_">
	<path id="XMLID_25_" d="M361.8,67.5H138.2c-0.9,0-1.8,0-2.7,0c-0.8,0-1.5,0-2.3,0c-1.6,0-3.3,0.1-4.9,0.4c-1.6,0.3-3.2,0.8-4.7,1.5
		c-1.5,0.8-2.8,1.7-4,2.9c-1.2,1.2-2.2,2.5-2.9,4c-0.8,1.5-1.3,3-1.5,4.7c-0.3,1.6-0.4,3.3-0.4,4.9c0,0.8,0,1.5,0,2.3
		c0,0.9,0,1.8,0,2.7v318c0,0.9,0,1.8,0,2.7c0,0.8,0,1.5,0,2.3c0,1.7,0.1,3.3,0.4,4.9c0.3,1.7,0.8,3.2,1.5,4.7c0.7,1.5,1.7,2.8,2.9,4
		c1.2,1.2,2.5,2.2,4,2.9c1.5,0.8,3,1.3,4.7,1.6c1.6,0.3,3.3,0.4,4.9,0.4c0.8,0,1.5,0,2.3,0c0.9,0,1.8,0,2.7,0h223.6
		c0.9,0,1.8,0,2.7,0c0.7,0,1.5,0,2.3,0c1.6,0,3.3-0.1,4.9-0.4c1.6-0.3,3.2-0.8,4.7-1.6c1.5-0.7,2.8-1.7,4-2.9c1.2-1.2,2.2-2.5,2.9-4
		c0.8-1.5,1.2-3,1.5-4.7c0.3-1.6,0.4-3.3,0.5-4.9c0-0.8,0-1.5,0-2.3c0-0.9,0-1.8,0-2.7V91c0-0.9,0-1.8,0-2.7c0-0.8,0-1.5,0-2.3
		c-0.1-1.7-0.2-3.3-0.5-4.9c-0.3-1.7-0.8-3.2-1.5-4.7c-0.8-1.5-1.7-2.8-2.9-4c-1.2-1.2-2.5-2.1-4-2.9c-1.5-0.8-3.1-1.3-4.7-1.5
		c-1.6-0.3-3.3-0.4-4.9-0.4c-0.8,0-1.5,0-2.3,0C363.6,67.5,362.7,67.5,361.8,67.5z"/>
	<path id="XMLID_26_" class="st0" d="M138.2,429.5c-0.9,0-1.8,0-2.7,0c-0.7,0-1.5,0-2.2,0c-1.3,0-2.9-0.1-4.5-0.4
		c-1.4-0.3-2.7-0.7-3.8-1.3c-1.2-0.6-2.3-1.4-3.2-2.3c-1-0.9-1.8-2-2.4-3.2c-0.6-1.2-1-2.4-1.3-3.8c-0.3-1.6-0.4-3.2-0.4-4.5
		c0-0.5,0-1,0-1.5l0-0.7l0-323.3l0-0.7c0-0.5,0-1,0-1.5c0-1.3,0.1-2.9,0.4-4.5c0.2-1.4,0.7-2.7,1.3-3.9c0.6-1.2,1.4-2.3,2.3-3.2
		c1-1,2-1.8,3.2-2.4c1.2-0.6,2.4-1,3.8-1.3c1.6-0.3,3.2-0.4,4.5-0.4l0.5,0c0.6,0,1.1,0,1.7,0c0.9,0,1.8,0,2.7,0h223.6
		c0.9,0,1.8,0,2.7,0c0.6,0,1.2,0,1.7,0l0.5,0c1.2,0,2.9,0.1,4.4,0.4c1.4,0.2,2.7,0.7,3.9,1.3c1.2,0.6,2.3,1.4,3.2,2.3
		c0.9,0.9,1.7,2,2.4,3.3c0.6,1.2,1,2.4,1.2,3.8c0.3,1.5,0.4,3.1,0.4,4.5c0,0.7,0,1.4,0,2.2c0,0.9,0,1.8,0,2.7v318c0,0.9,0,1.8,0,2.6
		c0,0.8,0,1.5,0,2.3c0,1.4-0.1,3-0.4,4.4c-0.2,1.4-0.7,2.7-1.3,3.9c-0.6,1.2-1.4,2.3-2.3,3.2c-1,1-2,1.8-3.2,2.4
		c-1.2,0.6-2.4,1-3.9,1.3c-1.5,0.3-3.1,0.3-4.5,0.4c-0.7,0-1.5,0-2.2,0c-0.9,0-1.8,0-2.7,0H138.2z"/>
	
		<linearGradient id="XMLID_16_" gradientUnits="userSpaceOnUse" x1="1.948019e-003" y1="1.946803e-003" x2="1.0019" y2="1.946803e-003" gradientTransform="matrix(0 -159.29 -159.29 0 250.0767 270.7713)">
		<stop  offset="0" style="stop-color:#1A7CB4"/>
		<stop  offset="1" style="stop-color:#17E2FE"/>
	</linearGradient>
	<path id="XMLID_27_" class="st1" d="M322.7,270.5H176.9c-6.6,0-12-5.4-12-12V123.2c0-6.6,5.4-12,12-12h145.8c6.6,0,12,5.4,12,12
		v135.3C334.7,265.1,329.3,270.5,322.7,270.5z"/>
	<path id="XMLID_28_" d="M238.9,388.5h-9.6l-1.8-33.7c-0.9-15.5-1.3-26.5-1.3-32.9h-0.3c-2.6,9.2-5.7,18.8-9.3,29L203.3,388h-7.4
		l-12.2-36.4c-3.7-11-6.6-20.9-8.6-29.7h-0.2c-0.3,11.1-0.8,22.3-1.5,33.7l-2,32.9H162l5.3-76.7h12.4l12.7,37
		c3,8.5,5.5,17.1,7.6,25.8h0.3c2.1-8.5,4.8-17.1,8-25.8l13.3-37h12.5L238.9,388.5z"/>
	<path id="XMLID_31_" d="M291.3,388.4h-9l-0.9-6.8h-0.2c-3.8,5.3-9.3,8-16.5,8c-5.2,0-9.3-1.6-12.3-4.8c-2.8-3-4.2-6.6-4.2-10.9
		c0-6.7,2.8-11.8,8.4-15.3c5.6-3.5,13.6-5.3,24-5.2v-1.1c0-8.5-4.1-12.7-12.3-12.7c-5.3,0-10,1.3-14,4l-2.3-6.6
		c4.9-3.1,10.8-4.7,17.9-4.7c13.7,0,20.5,7.4,20.5,22.3v20.8C290.4,380.7,290.7,385,291.3,388.4z M280.7,369.9v-9.7
		c-15.1-0.3-22.6,3.8-22.6,12.4c0,3.1,0.9,5.5,2.6,7.1c1.7,1.6,3.9,2.4,6.6,2.4c3.3,0,6.1-0.9,8.5-2.8c2.1-1.7,3.6-3.8,4.4-6.3
		C280.6,372.1,280.7,371.1,280.7,369.9z"/>
	<path id="XMLID_32_" d="M342.7,335l-2.2,7.6c-3.2-1.7-6.9-2.6-11.3-2.6c-6,0-10.7,2.1-14.1,6.3c-3.3,3.8-4.9,8.7-4.9,14.7
		c0,6.2,1.7,11.2,5.2,15c3.5,3.8,8,5.6,13.5,5.6c3.9,0,7.9-0.9,11.8-2.6l1.6,7.5c-4.2,2-9.3,3-15.2,3c-8.2,0-14.7-2.5-19.6-7.6
		c-4.9-5.1-7.3-11.9-7.3-20.4c0-8.6,2.7-15.6,8-21c5.3-5.5,12.3-8.2,21-8.2C334.8,332.1,339.2,333.1,342.7,335z"/>
	<g id="XMLID_35_">
		<defs>
			<path id="XMLID_34_" d="M323.4,270.5H176.6c-6.6,0-12-5.4-12-12V123.2c0-6.6,5.4-12,12-12h146.8c6.6,0,12,5.4,12,12v135.3
				C335.4,265.1,330,270.5,323.4,270.5z"/>
		</defs>
		<clipPath id="XMLID_17_">
			<use xlink:href="#XMLID_34_"  style="overflow:visible;"/>
		</clipPath>
		
			<linearGradient id="XMLID_21_" gradientUnits="userSpaceOnUse" x1="1.791727e-003" y1="1.790925e-003" x2="1.0018" y2="1.790925e-003" gradientTransform="matrix(0 -190.1608 -190.1608 0 295.0257 282.8392)">
			<stop  offset="0" style="stop-color:#D8E3EF"/>
			<stop  offset="1" style="stop-color:#F4F4F5"/>
		</linearGradient>
		<path id="XMLID_36_" class="st2" d="M261.7,92.3c0,0-14.7,18.7-22.4,69.4c-5.9,39.1-6.2,41.8,2.3,41.8c8.6,0,18.9-1.5,19.3,1.6
			c0.4,3.1,0.8,46.5,6.7,66.6c5.9,20.1,70.6,5.9,70.6,5.9l16.1-92.3l-11.2-79L261.7,92.3z"/>
	</g>
	<path id="XMLID_33_" class="st3" d="M211.6,169.6c-1.8,0-3.2-1.4-3.2-3.2v-10c0-1.8,1.4-3.2,3.2-3.2c1.8,0,3.2,1.4,3.2,3.2v10
		C214.8,168.2,213.4,169.6,211.6,169.6z"/>
	<path id="XMLID_37_" class="st3" d="M287.3,169.6c-1.8,0-3.2-1.4-3.2-3.2v-10c0-1.8,1.4-3.2,3.2-3.2s3.2,1.4,3.2,3.2v10
		C290.5,168.2,289.1,169.6,287.3,169.6z"/>
	<path id="XMLID_38_" class="st3" d="M250,238.6c-20.9,0-38.3-7.4-51.8-21.9c-1-1.1-1-2.9,0.1-3.9c1.1-1,2.9-1,3.9,0.1
		c12.4,13.3,28.5,20.1,47.7,20.1c18.9,0,34.9-6.7,47.6-19.9c1.1-1.1,2.8-1.2,3.9-0.1c1.1,1.1,1.2,2.8,0.1,3.9
		C287.9,231.3,270.5,238.6,250,238.6z"/>
</g>
</svg>
