<?xml version="1.0" encoding="utf-8"?>
<!-- Generator: Adobe Illustrator 26.5.0, SVG Export Plug-In . SVG Version: 6.00 Build 0)  -->
<svg version="1.1" id="Layer_1" xmlns="http://www.w3.org/2000/svg" xmlns:xlink="http://www.w3.org/1999/xlink" x="0px" y="0px"
	 viewBox="0 0 512 512" style="enable-background:new 0 0 512 512;" xml:space="preserve">
<style type="text/css">
	.st0{fill:#008CDB;}
</style>
<g>
	<path class="st0" d="M303.97,277.64c-12.76,0-23.99,8-30.44,19.22H84.87c-31.98,0-57.65-27.21-57.65-59.2s25.67-59.2,57.65-59.2
		h27.21c0-6.45,3.23-12.76,4.77-19.22c1.54-1.54,1.54-4.77,3.23-6.45c12.76-23.99,38.44-39.98,67.19-39.98
		c25.67,0,47.97,12.76,62.42,31.98c8-3.23,15.99-6.45,25.67-8c-17.53-30.44-49.66-49.66-87.95-49.66
		c-43.2,0-79.96,27.21-95.95,65.65h-6.59C38.44,152.8,0,191.23,0,239.21s38.44,84.87,84.87,84.87h190.35
		c4.77,11.22,15.99,19.22,30.44,19.22c17.53,0,31.98-14.45,31.98-33.67C337.64,290.41,323.19,277.64,303.97,277.64z M409.6,211.99
		c-19.22-38.44-59.2-65.65-103.94-65.65c-55.97,0-102.4,39.98-113.62,92.86c-27.21,3.23-51.2,17.53-65.65,38.44h139.15
		c9.54-12.76,23.99-19.22,39.98-19.22c28.76,0,51.2,23.99,51.2,52.74s-23.99,52.74-51.2,52.74c-15.99,0-30.44-8-39.98-19.22H110.4
		c6.45,44.75,44.75,79.96,89.64,79.96h208.03c57.65,0,103.94-46.43,103.94-105.63S465.57,213.68,409.6,211.99z"/>
</g>
</svg>
