<?xml version="1.0" encoding="utf-8"?>
<!-- Generator: Adobe Illustrator 24.1.1, SVG Export Plug-In . SVG Version: 6.00 Build 0)  -->
<svg version="1.1" id="Layer_1" xmlns="http://www.w3.org/2000/svg" xmlns:xlink="http://www.w3.org/1999/xlink" x="0px" y="0px"
	 viewBox="0 0 500 500" style="enable-background:new 0 0 500 500;" xml:space="preserve">
<style type="text/css">
	.st0{fill:#5059C9;}
	.st1{fill:#7B83EB;}
	.st2{fill:#6E76D3;}
	.st3{fill:#6269BC;}
	.st4{fill:#B7B7B7;}
	.st5{fill:#585EA9;}
	.st6{fill:#464B87;}
	.st7{fill:#757575;}
	.st8{fill:#383C6C;}
	.st9{fill:#E5E5E5;}
	.st10{fill:#929292;}
	.st11{fill:url(#SVGID_1_);}
	.st12{fill:#FFFFFF;}
</style>
<g>
	<path class="st0" d="M322.09,207.56h94.28c8.91,0,16.13,7.22,16.13,16.13v85.88c0,32.74-26.54,59.27-59.27,59.27h-0.28
		c-32.74,0-59.28-26.53-59.28-59.27v-0.01v-93.58C313.66,211.33,317.44,207.56,322.09,207.56z"/>
	<circle class="st0" cx="385.81" cy="152.38" r="38.2"/>
	<path class="st1" d="M266.98,80.23c30.47,0,55.17,24.7,55.17,55.17s-24.7,55.17-55.17,55.17s-55.17-24.7-55.17-55.17
		S236.5,80.23,266.98,80.23"/>
	<path class="st1" d="M340.55,207.56H184.92c-8.8,0.22-15.76,7.52-15.56,16.32v97.95c-1.23,52.82,40.56,96.65,93.37,97.94
		c52.82-1.29,94.6-45.12,93.37-97.94v-97.95C356.31,215.08,349.35,207.78,340.55,207.56"/>
	<path class="st2" d="M271.22,207.56h-8.49v128.77l0,0v16.98c0,2.01-0.4,4-1.19,5.86l0,0l0,0c5.82-2.4,9.63-8.05,9.68-14.35V207.56"
		/>
	<path class="st3" d="M261.54,359.16c-1.85,0.78-3.84,1.19-5.86,1.19h-78.86c1.19,2.89,2.55,5.69,3.99,8.49h66.38
		C253.49,368.8,259.15,364.98,261.54,359.16 M173.86,351.86c0.85,2.89,1.78,5.6,2.97,8.49
		C175.73,357.55,174.71,354.75,173.86,351.86 M169.36,322.05c0.03,10.1,1.55,20.15,4.5,29.81
		C170.91,342.2,169.4,332.15,169.36,322.05"/>
	<path class="st4" d="M169.36,223.87v97.94c0,0.01,0,0.02,0,0.02c0,0,0,0,0-0.01L169.36,223.87
		C169.36,223.88,169.36,223.88,169.36,223.87 M184.89,207.56L184.89,207.56c-8.66,0.21-15.53,7.3-15.54,15.91c0,0.04,0,0.09,0,0.13
		c0-0.04,0-0.07,0-0.11c0-0.01,0-0.01,0-0.02C169.36,214.86,176.24,207.77,184.89,207.56"/>
	<path class="st5" d="M169.36,223.49c0,0.04,0,0.07,0,0.11c0,0.08,0,0.17,0,0.25v0.02c0,0,0,0,0,0.01v97.95c0,0,0,0,0,0.01
		c0,0.07,0,0.14,0,0.22c0.03,10.1,1.55,20.15,4.5,29.81l0,0l0,0c0.85,2.89,1.87,5.69,2.97,8.49l0,0l0,0h78.86
		c2.01,0,4-0.4,5.86-1.19l0,0c0.78-1.85,1.19-3.84,1.19-5.86v-16.98c-0.06,8.55-6.98,15.47-15.53,15.53h-73.34
		c-2.97-9.74-4.49-19.87-4.5-30.05v-97.96C169.36,223.73,169.36,223.61,169.36,223.49"/>
	<path class="st6" d="M262.73,207.56h-8.49v128.77c-0.06,8.55-6.98,15.47-15.53,15.53h-64.85c-2.97-9.74-4.49-19.87-4.5-30.05
		v-97.96c0-0.12,0-0.24,0-0.37l0,0c0,0.12,0,0.24,0,0.37v97.96c0.01,10.18,1.53,20.31,4.5,30.05h73.34
		c8.55-0.06,15.47-6.98,15.53-15.53V207.56"/>
	<path class="st7" d="M254.24,207.56h-69.35c-8.66,0.21-15.53,7.3-15.54,15.91c0,0.01,0,0.01,0,0.02
		c0.01-8.63,6.89-15.72,15.56-15.93H254.24"/>
	<path class="st8" d="M254.24,207.56h-69.32c-8.67,0.21-15.56,7.31-15.56,15.93c0,0.12,0,0.24,0,0.37v97.96
		c0.01,10.18,1.53,20.31,4.5,30.05h64.85c8.55-0.06,15.47-6.98,15.53-15.53V207.56"/>
	<path class="st9" d="M258.25,189.89c1.1,0.18,2.2,0.32,3.31,0.42l0,0C260.45,190.22,259.35,190.08,258.25,189.89
		C258.25,189.9,258.25,189.9,258.25,189.89"/>
	<path class="st2" d="M255.69,148.14h-42.36c0.64,2.91,1.54,5.75,2.72,8.49c6.81,16.3,21.01,28.35,38.2,32.43
		c1.32,0.34,2.66,0.62,4,0.84c0,0,0,0,0,0c-1.35-0.22-2.68-0.5-4.01-0.84c-8.06-1.91-15.46-5.57-21.75-10.6
		c-7.13-5.7-12.83-13.16-16.45-21.82h22.66c0.01,0,0.02,0,0.02,0h8.46c8.57,0.03,15.5,6.97,15.53,15.53v18.25l0,0
		c-0.39-0.03-0.78-0.06-1.17-0.09l0,0c0.39,0.04,0.78,0.07,1.17,0.09c1.44,0.09,2.8,0.17,4.24,0.17c1.44,0,2.8-0.09,4.24-0.17
		v-26.74C271.19,155.11,264.25,148.17,255.69,148.14"/>
	<path class="st10" d="M258.25,189.9c1.1,0.18,2.2,0.32,3.31,0.42C260.45,190.21,259.34,190.07,258.25,189.9"/>
	<path class="st6" d="M247.2,156.63h-8.46c8.55,0.05,15.48,6.98,15.51,15.53v16.89c-8.06-1.91-15.46-5.57-21.75-10.6
		c6.29,5.03,13.69,8.69,21.75,10.6c1.32,0.34,2.66,0.62,4.01,0.84c1.09,0.17,2.19,0.31,3.31,0.42c0.39,0.04,0.78,0.07,1.17,0.09
		v-18.25C262.7,163.6,255.76,156.66,247.2,156.63"/>
	<path class="st5" d="M238.71,156.63h-22.66c3.62,8.66,9.32,16.12,16.45,21.82c-7.13-5.7-12.83-13.16-16.45-21.82l0,0l0,0h22.69
		C238.73,156.63,238.72,156.63,238.71,156.63"/>
	<path class="st8" d="M238.74,156.63h-22.69c3.62,8.66,9.32,16.12,16.45,21.82c6.29,5.03,13.69,8.69,21.75,10.6v-16.89
		C254.21,163.6,247.29,156.67,238.74,156.63"/>
	
		<linearGradient id="SVGID_1_" gradientUnits="userSpaceOnUse" x1="0.5542" y1="0.2491" x2="0.718" y2="0.2491" gradientTransform="matrix(744.1345 1288.8104 1288.8104 -744.1345 -633.4913 -384.454)">
		<stop  offset="0" style="stop-color:#5A62C3"/>
		<stop  offset="0.5" style="stop-color:#4D55BD"/>
		<stop  offset="1" style="stop-color:#3940AB"/>
	</linearGradient>
	<path class="st11" d="M83.06,156.63h155.63c8.59,0,15.56,6.97,15.56,15.56v155.63c0,8.59-6.97,15.56-15.56,15.56H83.06
		c-8.59,0-15.56-6.97-15.56-15.56V172.19C67.5,163.59,74.47,156.63,83.06,156.63z"/>
	<polygon class="st12" points="201.82,215.86 170.71,215.86 170.71,300.57 150.89,300.57 150.89,215.86 119.92,215.86 
		119.92,199.43 201.82,199.43 	"/>
</g>
</svg>
