<?xml version="1.0" encoding="utf-8"?>
<!-- Generator: Adobe Illustrator 26.5.0, SVG Export Plug-In . SVG Version: 6.00 Build 0)  -->
<svg version="1.1" id="Ñëîé_1" xmlns="http://www.w3.org/2000/svg" xmlns:xlink="http://www.w3.org/1999/xlink" x="0px" y="0px"
	 viewBox="0 0 512 512" style="enable-background:new 0 0 512 512;" xml:space="preserve">
<style type="text/css">
	.st0{fill:#929296;}
	.st1{opacity:0.89;fill:#D31446;enable-background:new    ;}
	.st2{opacity:0.9;fill:#008CC5;enable-background:new    ;}
	.st3{opacity:0.91;fill:#E7B220;enable-background:new    ;}
	.st4{opacity:0.88;fill:#3E953A;enable-background:new    ;}
</style>
<g id="XMLID_1_">
	<g id="_x23_929296ff" transform="translate(0,-0.9)">
		<path id="path8" class="st0" d="M435.89,218.7c13.42-9.82,31.41-10.93,47.33-7.75c14.67,2.35,27.68,13.42,28.78,28.92
			c-12.87,2.77-9.96-13.56-19.37-17.3c-14.81-8.3-34.46-8.16-48.99,0.55c-8.03,4.57-9.41,17.57-0.83,22.28
			c18.82,10.52,43.17,4.43,61.16,17.3c10.1,7.06,10.52,23.25,1.38,31.27c-9.27,8.16-22.42,10.1-34.46,10.52
			c-13.7,0.14-28.78-2.49-39.02-12.32c-5.67-4.98-6.92-12.87-9.13-19.65c11.9-2.49,10.38,12.18,18.13,16.74
			c12.87,8.99,30.03,9.69,44.83,6.09c6.92-1.8,14.67-5.4,16.61-12.87c2.08-6.64-2.08-13.56-8.16-16.33
			c-18.13-8.58-39.99-4.29-57.43-14.67C425.1,244.71,425.24,226.31,435.89,218.7L435.89,218.7z"/>
		<path id="path10" class="st0" d="M13.98,227.14c13.98-10.66,31.27-18.96,49.26-15.5c13.15,1.25,24.63,12.04,25.32,25.6
			c1.11,21.17,0.14,42.34,0.42,63.52c-2.21,0-6.64,0-8.72,0c-0.42-20.76,0.69-41.51-0.42-62.27c-0.55-11.62-11.49-19.93-22.56-20.2
			c-16.74-1.8-31.27,8.3-43.59,18.4C13.84,234.33,13.98,229.49,13.98,227.14z"/>
		<path id="path12" class="st0" d="M122.33,222.57c19.23-18.4,54.8-16.61,70.43,5.4c6.23,8.03,7.2,18.4,8.03,28.23
			c-26.43,0.28-52.86,0-79.29,0.14c0.14-1.66,0.42-4.98,0.55-6.78c23.39-0.14,46.77,0.28,70.16-0.14
			c-2.49-8.44-4.98-17.57-12.18-23.39c-16.33-14.25-44.14-10.79-56.6,6.78c-13.84,18.68-7.06,49.82,15.08,58.81
			c18.68,8.03,39.44,1.25,55.49-9.55c1.38,0.97,4.01,3.04,5.4,4.01c-19.1,17.44-49.95,22.28-72.23,8.03
			C103.51,279.03,100.88,240.84,122.33,222.57z"/>
		<path id="path14" class="st0" d="M0,212.75c2.21,0,6.64,0,8.86,0c0,29.34,0,58.67,0,88.01c-2.21,0-6.64,0-8.86,0V212.75z"/>
		<path id="path16" class="st0" d="M318.55,212.89c2.21,0,6.64-0.14,8.86-0.14c0,18.68,0,37.22,0,55.9c0,7.06,0.83,14.81,6.23,20.06
			c7.61,7.47,19.51,8.44,29.47,6.23c12.04-2.49,21.73-10.52,31.55-17.44c1.52,11.35-9.55,15.91-17.71,20.2
			c-13.56,6.64-30.58,7.89-44.28,0.83c-9.55-5.12-14.11-16.33-13.98-26.85c-0.28-19.65,0-39.16,0-58.81H318.55z"/>
		<path id="path18" class="st0" d="M398.94,212.75c2.21,0,6.64,0,8.86,0c0,29.34,0,58.67,0,88.15c-2.21,0-6.64,0-8.72,0
			C398.94,271.42,398.94,242.08,398.94,212.75L398.94,212.75z"/>
	</g>
	<g id="_x23_d31446e3" transform="translate(0,-0.9)">
		<path id="path21" class="st1" d="M294.47,212.33c3.87,0.14,7.61,0.28,11.49,0.28c-11.07,11.62-22.42,22.83-33.63,34.32
			c-3.87,4.15-8.72,7.2-14.11,8.99c-1.38-6.64,3.87-10.93,7.75-15.08C275.51,231.29,284.92,221.74,294.47,212.33z"/>
	</g>
	<g id="_x23_008cc5e5" transform="translate(0,-0.9)">
		<path id="path24" class="st2" d="M205.91,212.47c3.04,0,9.27,0.14,12.32,0.28c10.79,12.04,23.11,22.69,33.63,34.87
			c0.69,1.94,2.08,5.81,2.63,7.75c-5.81-0.55-10.66-3.87-14.39-8.03C228.74,235.58,216.98,224.37,205.91,212.47z"/>
	</g>
	<g id="_x23_e7b220e7" transform="translate(0,-0.9)">
		<path id="path27" class="st3" d="M241.75,264.36c3.32-3.74,7.75-5.67,12.59-6.5c-0.69,4.84-2.77,9.27-6.37,12.45
			c-10.1,10.1-20.2,20.34-30.3,30.58c-4.01,0-7.89,0-11.9,0C217.53,288.58,229.71,276.54,241.75,264.36z"/>
	</g>
	<g id="_x23_3e953ae0" transform="translate(0,-0.9)">
		<path id="path30" class="st4" d="M256.69,258.14c9.41,0.14,15.08,8.03,21.03,14.11c9.27,9.55,18.96,18.82,28.09,28.78
			c-3.87,0.14-7.75,0.14-11.62,0.28c-10.38-10.66-21.03-21.03-31.41-31.69C259.6,266.44,258.21,262.15,256.69,258.14z"/>
	</g>
</g>
</svg>
