<?xml version="1.0" encoding="utf-8"?>
<!-- Generator: Adobe Illustrator 26.5.0, SVG Export Plug-In . SVG Version: 6.00 Build 0)  -->
<svg version="1.1" id="Layer_1" xmlns="http://www.w3.org/2000/svg" xmlns:xlink="http://www.w3.org/1999/xlink" x="0px" y="0px"
	 viewBox="0 0 512 512" style="enable-background:new 0 0 512 512;" xml:space="preserve">
<style type="text/css">
	.st0{fill:#009900;}
</style>
<g id="XMLID_1_">
	<path id="XMLID_3_" class="st0" d="M22.31,298.38v-57.93l65.78,65.78c3.23,3.23,8,4.07,12.06,2.38c4.07-1.68,6.87-5.75,6.87-10.24
		v-84.86c0-6.17-5.05-11.08-11.08-11.08c-6.17,0-11.08,5.05-11.08,11.08v57.93l-65.92-65.78c-3.23-3.23-8-4.07-12.06-2.38
		c-4.21,1.68-6.87,5.75-6.87,10.24v84.86c0,6.17,5.05,11.08,11.08,11.08C17.27,309.46,22.31,304.41,22.31,298.38L22.31,298.38z"/>
	<path id="XMLID_4_" class="st0" d="M147.43,202.44l-3.09,5.75l-23.7,42.92l-3.09,5.47l3.09,5.47l23.7,41.52l3.23,5.75h6.59h48.39
		h7.01l3.09-6.31l17.67-35.63l7.85-16.13h-17.95l-45.17,0.14c-5.89-0.14-11.22,5.19-11.22,11.08c0,5.89,5.47,11.22,11.22,11.08
		l27.21-0.14l-6.73,13.47h-35.07l-17.39-30.58l17.53-31.7h37.31l8.7,17.81h22.44l-14.17-33.8l-3.09-6.31h-7.01h-50.78h-6.59V202.44z
		"/>
	<path id="XMLID_5_" class="st0" d="M260.06,202.3c-5.89,0.14-11.08,5.47-10.94,11.22v29.03h22.3v-29.03
		C271.42,207.77,266.09,202.3,260.06,202.3z"/>
	<path id="XMLID_6_" class="st0" d="M391.77,298.52v-84.86c0-4.49-2.67-8.56-6.87-10.24c-4.21-1.68-8.98-0.7-12.06,2.38
		l-65.78,65.78v-57.93c0-6.17-5.05-11.08-11.08-11.08c-6.17,0-11.08,5.05-11.08,11.08v84.86c0,4.49,2.67,8.56,6.87,10.24
		c4.21,1.68,8.98,0.7,12.06-2.38l65.78-65.78v57.93c0,6.17,5.05,11.08,11.08,11.08C386.72,309.74,391.77,304.69,391.77,298.52
		L391.77,298.52z"/>
	<path id="XMLID_7_" class="st0" d="M408.04,221.51l84.86,84.58c4.35,4.35,11.36,4.35,15.71,0s4.35-11.36,0-15.71l-84.86-84.58
		c-4.35-4.35-11.36-4.35-15.71,0C403.69,210.15,403.69,217.31,408.04,221.51"/>
	<path id="XMLID_8_" class="st0" d="M493.04,205.81l-84.86,84.58c-4.35,4.35-4.35,11.36,0,15.71s11.36,4.35,15.71,0l84.86-84.58
		c4.35-4.35,4.35-11.36,0-15.71C504.4,201.46,497.39,201.46,493.04,205.81"/>
	<path id="XMLID_9_" class="st0" d="M260.06,309.32c-5.89-0.14-11.08-5.47-10.94-11.22v-46.57h22.3v46.57
		C271.42,303.99,266.09,309.46,260.06,309.32z"/>
</g>
</svg>
