<?xml version="1.0" encoding="utf-8"?>
<!-- Generator: Adobe Illustrator 24.1.1, SVG Export Plug-In . SVG Version: 6.00 Build 0)  -->
<svg version="1.1" id="Layer_1" xmlns="http://www.w3.org/2000/svg" xmlns:xlink="http://www.w3.org/1999/xlink" x="0px" y="0px"
	 viewBox="0 0 512 512" style="enable-background:new 0 0 512 512;" xml:space="preserve">
<style type="text/css">
	.st0{fill:#070707;}
	.st1{fill:#499CD2;}
</style>
<g>
	<path class="st0" d="M269,293c-8.4,5.7-19.9,3.5-25.6-4.9c-5.7-8.4-3.5-19.9,4.9-25.6c8.4-5.7,19.9-3.5,25.6,4.9
		C279.6,275.8,277.5,287.2,269,293 M280.4,262.9c-8.2-12-24.5-15.1-36.5-7c-12,8.2-15.1,24.5-7,36.5c7.2,10.6,20.9,14.3,32.2,9.3
		l10.2,16.5l8.1-5.5l-10.2-16.5C286.1,287.6,287.7,273.6,280.4,262.9 M0,299.8c3.8,2,9.6,3.6,16.1,3.6c14.3,0,21.6-6.8,21.6-16.3
		c-0.1-7.3-4-12.1-13.5-15.3c-6.1-2-8.1-3.4-8.1-5.7c0-2.5,2.1-4,5.9-4c4.2,0,8.6,1.6,10.8,2.8l2.7-10.6c-3.1-1.5-8.2-3-14-3
		c-12.4,0-20.3,7.1-20.3,16.5c-0.1,5.8,3.9,11.4,14.3,14.9c5.7,1.8,7.3,3.2,7.3,5.7s-1.9,4.1-6.6,4.1c-4.6,0-10.5-1.9-13.4-3.7
		L0,299.8z M65.2,303.5c13.3,0,26.3-8.4,26.3-26.6c0-15.1-10.2-25.7-25.5-25.7c-16.1,0-26.8,10.3-26.8,26.5
		c0,16.1,11.2,25.8,25.9,25.8H65.2z M65.4,292.3c-6.5,0-10.1-6.4-10.1-14.9c0-7.5,2.9-15,10.2-15c7.1,0,9.9,7.6,9.9,14.9
		c0,9-3.8,15-9.9,15H65.4z M96,302.3h15.5v-28.8c0-1.4,0.1-2.9,0.5-3.9c1.1-2.9,3.7-5.8,8-5.8c5.6,0,7.9,4.4,7.9,10.8v27.7h15.5
		v-29.5c0-14.7-7.7-21.6-17.9-21.6c-8.4,0-13.4,4.8-15.4,8.1h-0.3l-0.7-7H95.6c0.2,4.5,0.4,9.7,0.4,15.9V302.3z M192.4,272.8
		c0-11.8-5.2-21.6-21.9-21.6c-9.1,0-15.9,2.6-19.4,4.5l2.9,9.9c3.3-1.9,8.7-3.7,13.8-3.7c7.7,0,9.1,3.8,9.1,6.4v0.6
		c-17.7,0-29.3,6.1-29.3,19.1c0,8,6,15.3,16.1,15.3c5.9,0,11-2.1,14.3-6.1h0.3l0.9,5h14c-0.6-2.8-0.8-7.4-0.8-12.1V272.8z
		 M177.3,284.1c0,0.9-0.1,1.8-0.3,2.7c-1,3.2-4.3,5.7-8.1,5.7c-3.5,0-6.1-1.9-6.1-5.9c0-5.9,6.3-7.9,14.5-7.9V284.1z M199.6,302.3
		h15.5v-25.2c0-1.3,0.1-2.5,0.3-3.5c1-4.9,4.9-7.9,10.6-7.9c1.7,0,3,0.2,4.2,0.4v-14.6c-1.1-0.2-1.8-0.3-3.3-0.3
		c-4.9,0-10.9,3.1-13.5,10.4h-0.4l-0.6-9.3h-13.3c0.3,4.3,0.4,9.1,0.4,16.5V302.3z M331.7,253.1h-9v30.3c0,1.7-0.3,3.4-0.8,4.6
		c-1.6,4.1-5.8,8.3-11.9,8.3c-8.1,0-11-6.4-11-15.8v-27.3h-9v28.9c0,17.3,9.3,21.7,17.1,21.7c8.8,0,14.1-5.2,16.4-9.2h0.2l0.5,8.1h8
		c-0.3-3.9-0.4-8.4-0.4-13.6V253.1z M341.5,289.8c0,4.4-0.1,9.4-0.4,12.8h7.8l0.5-8.2h0.2c3.8,6.5,9.4,9.3,16.6,9.3
		c11,0,22.3-8.8,22.3-26.6c0-14.9-8.6-25.1-20.9-25.1c-8,0-13.7,3.5-16.9,9h-0.2v-31h-9V289.8z M350.5,273.9c0-1.4,0.2-2.7,0.5-3.8
		c1.7-6.7,7.5-11,13.6-11c9.6,0,14.7,8.5,14.7,18.5c0,11.3-5.5,19-15,19c-6.4,0-11.8-4.3-13.5-10.5c-0.2-1-0.3-2.1-0.3-3.3V273.9z
		 M434.3,279.5c0.2-1,0.3-2.4,0.3-4.2c0-9.1-4.2-23.3-20.3-23.3c-14.4,0-23.3,11.8-23.3,26.7c0,14.8,9.2,24.9,24.3,24.9
		c7.9,0,13.4-1.7,16.6-3.2l-1.6-6.4c-3.3,1.4-7.3,2.6-13.7,2.6c-9,0-16.7-5-16.9-17.1H434.3z M399.8,273.1
		c0.7-6.2,4.6-14.6,13.8-14.6c10,0,12.5,8.9,12.4,14.6H399.8z"/>
	<path class="st1" d="M496.8,302.4h-6.3c0-50.6-41.8-91.8-93.1-91.8v-6.3C452.2,204.3,496.8,248.3,496.8,302.4z M501.1,268.7
		c-7.5-31.8-33.3-58.3-65.6-67.5l1.4-5c34.1,9.8,61.2,37.8,69.2,71.4L501.1,268.7z M508.2,238.9c-7.8-17-21-31.7-37.3-41.6l2.2-3.6
		c17,10.3,30.8,25.8,38.9,43.5L508.2,238.9z"/>
</g>
</svg>
