<?xml version="1.0" encoding="utf-8"?>
<!-- Generator: Adobe Illustrator 27.0.0, SVG Export Plug-In . SVG Version: 6.00 Build 0)  -->
<svg version="1.1" id="Layer_1" xmlns="http://www.w3.org/2000/svg" xmlns:xlink="http://www.w3.org/1999/xlink" x="0px" y="0px"
	 viewBox="0 0 512 512" style="enable-background:new 0 0 512 512;" xml:space="preserve">
<style type="text/css">
	.st0{fill:#6DB33F;}
</style>
<g id="XMLID_1_">
	<path id="XMLID_7_" class="st0" d="M489.99,109.72L148.14,3.39c-16.55-5.19-34.23,4.07-39.42,20.48L1.42,363.05
		c-5.19,16.41,4.07,34.09,20.62,39.14l341.84,106.33c16.55,5.19,34.23-4.07,39.42-20.48l107.17-339.18
		C515.8,132.58,506.54,114.91,489.99,109.72z M162.03,362.63c0,14.45-11.92,26.37-26.51,26.37h-0.14
		c-14.59,0-26.51-11.92-26.51-26.37V227.54c0-14.45,11.92-26.37,26.51-26.37h0.14c14.59,0,26.51,11.92,26.51,26.37V362.63z
		 M135.52,175.36c-14.73,0-26.65-11.92-26.65-26.51s11.92-26.51,26.65-26.51s26.65,11.92,26.65,26.51S150.25,175.36,135.52,175.36z
		 M304.69,389c-66.49,0-120.35-54.57-120.35-120.63c0-65.93,53.86-119.51,120.35-119.51c34.23,0,65.09,14.17,87.11,36.89
		l12.91-22.58c13.19,35.35,21.74,76.59,21.74,104.78C426.44,334.15,371.17,389,304.69,389z"/>
	<path id="XMLID_8_" class="st0" d="M259.1,350.14c12.91-4.07,26.65-8.28,38.15-11.92c45.45-14.59,84.58-51.34,94.96-97.35
		c-8.28,21.74-41.8,64.1-94.4,80.94c-16.83,5.33-34.37,8.7-51.76,12.62c-2.24,0.56-5.33,0-7.15-1.26
		c-11.08-6.87-17.11-19.08-17.95-31.42c-2.52-33.24,20.2-60.32,54-67.33c14.17-2.95,28.76-2.24,43.34-3.79
		c38.29-4.07,74.34-31.14,85.15-54c0,0,1.96,4.49,2.38,5.75c8.28,25.53,14.73,51.48,15.43,78.41c0.28,14.59-1.26,28.9-6.45,42.64
		c-10.38,27.63-31.7,41.66-60.32,45.03c-16.69,1.96-33.67,1.54-50.5,1.82C290.38,350.7,274.53,350.14,259.1,350.14"/>
	<path id="XMLID_9_" class="st0" d="M242.26,351.55c0,5.61-4.63,10.24-10.24,10.24c-5.61,0-10.24-4.63-10.24-10.24
		c0-5.61,4.63-10.24,10.24-10.24C237.63,341.45,242.26,345.93,242.26,351.55"/>
</g>
</svg>
